CommonSans-Condensed.ufo
<glyph name="comma" format="2">
  <advance width="185"/>
  <unicode hex="002C"/>
  <outline>
    <contour>
      <point x="48" y="-110" type="line"/>
      <point x="91" y="-110" type="line"/>
      <point x="137" y="20" type="line"/>
      <point x="137" y="110" type="line"/>
      <point x="48" y="110" type="line"/>
      <point x="48" y="20" type="line"/>
      <point x="70" y="20" type="line"/>
    </contour>
  </outline>
</glyph>
<glyph name="zero" format="2">
  <advance width="568"/>
  <unicode hex="0030"/>
  <outline>
    <contour>
      <point x="48" y="350" type="curve" smooth="yes"/>
      <point x="48" y="140"/>
      <point x="94" y="-11"/>
      <point x="284" y="-11" type="curve" smooth="yes"/>
      <point x="474" y="-11"/>
      <point x="520" y="140"/>
      <point x="520" y="350" type="curve" smooth="yes"/>
      <point x="520" y="560"/>
      <point x="474" y="711"/>
      <point x="284" y="711" type="curve" smooth="yes"/>
      <point x="94" y="711"/>
      <point x="48" y="560"/>
    </contour>
    <contour>
      <point x="148" y="350" type="curve" smooth="yes"/>
      <point x="148" y="492"/>
      <point x="150" y="622"/>
      <point x="284" y="622" type="curve" smooth="yes"/>
      <point x="419" y="622"/>
      <point x="419" y="492"/>
      <point x="419" y="350" type="curve" smooth="yes"/>
      <point x="419" y="208"/>
      <point x="419" y="78"/>
      <point x="284" y="78" type="curve" smooth="yes"/>
      <point x="150" y="78"/>
      <point x="148" y="208"/>
    </contour>
  </outline>
</glyph>
<glyph name="one" format="2">
  <advance width="346"/>
  <unicode hex="0031"/>
  <outline>
    <contour>
      <point x="50" y="559" type="line"/>
      <point x="119" y="559"/>
      <point x="164" y="574"/>
      <point x="187" y="581" type="curve"/>
      <point x="187" y="561"/>
      <point x="187" y="542"/>
      <point x="187" y="522" type="curve" smooth="yes"/>
      <point x="187" y="0" type="line"/>
      <point x="288" y="0" type="line"/>
      <point x="288" y="700" type="line"/>
      <point x="248" y="700" type="line"/>
      <point x="210" y="666"/>
      <point x="156" y="634"/>
      <point x="50" y="634" type="curve"/>
    </contour>
  </outline>
</glyph>
<glyph name="two" format="2">
  <advance width="528"/>
  <unicode hex="0032"/>
  <outline>
    <contour>
      <point x="58" y="0" type="line"/>
      <point x="514" y="0" type="line"/>
      <point x="514" y="98" type="line"/>
      <point x="160" y="98" type="line"/>
      <point x="171" y="83" type="line"/>
      <point x="259" y="188"/>
      <point x="496" y="345"/>
      <point x="496" y="509" type="curve" smooth="yes"/>
      <point x="496" y="632"/>
      <point x="442" y="710"/>
      <point x="262" y="710" type="curve" smooth="yes"/>
      <point x="124" y="710"/>
      <point x="36" y="612"/>
      <point x="36" y="481" type="curve"/>
      <point x="136" y="481" type="line"/>
      <point x="139" y="557"/>
      <point x="182" y="622"/>
      <point x="263" y="622" type="curve" smooth="yes"/>
      <point x="380" y="622"/>
      <point x="395" y="571"/>
      <point x="395" y="498" type="curve" smooth="yes"/>
      <point x="395" y="388"/>
      <point x="146" y="208"/>
      <point x="58" y="96" type="curve"/>
    </contour>
  </outline>
</glyph>
<glyph name="four" format="2">
  <advance width="526"/>
  <unicode hex="0034"/>
  <outline>
    <contour>
      <point x="49" y="173" type="line"/>
      <point x="525" y="173" type="line"/>
      <point x="525" y="263" type="line"/>
      <point x="98" y="263" type="line"/>
      <point x="104" y="183" type="line"/>
      <point x="396" y="649" type="line"/>
      <point x="365" y="649" type="line"/>
      <point x="365" y="0" type="line"/>
      <point x="465" y="0" type="line"/>
      <point x="465" y="700" type="line"/>
      <point x="323" y="700" type="line"/>
      <point x="49" y="260" type="line"/>
    </contour>
  </outline>
</glyph>
<glyph name="five" format="2">
  <advance width="532"/>
  <unicode hex="0035"/>
  <outline>
    <contour>
      <point x="53" y="156" type="line"/>
      <point x="79" y="51"/>
      <point x="145" y="-12"/>
      <point x="269" y="-12" type="curve" smooth="yes"/>
      <point x="399" y="-12"/>
      <point x="494" y="100"/>
      <point x="494" y="243" type="curve" smooth="yes"/>
      <point x="494" y="392"/>
      <point x="416" y="493"/>
      <point x="298" y="493" type="curve" smooth="yes"/>
      <point x="225" y="493"/>
      <point x="156" y="434"/>
      <point x="129" y="378" type="curve"/>
      <point x="129" y="378"/>
      <point x="155" y="378"/>
      <point x="154" y="378" type="curve"/>
      <point x="154" y="620" type="line"/>
      <point x="428" y="620" type="line"/>
      <point x="428" y="700" type="line"/>
      <point x="56" y="700" type="line"/>
      <point x="56" y="298" type="line"/>
      <point x="156" y="298" type="line"/>
      <point x="167" y="383"/>
      <point x="235" y="410"/>
      <point x="293" y="410" type="curve" smooth="yes"/>
      <point x="340" y="410"/>
      <point x="395" y="367"/>
      <point x="395" y="249" type="curve" smooth="yes"/>
      <point x="395" y="165"/>
      <point x="354" y="77"/>
      <point x="267" y="77" type="curve" smooth="yes"/>
      <point x="190" y="77"/>
      <point x="159" y="108"/>
      <point x="144" y="156" type="curve"/>
    </contour>
  </outline>
</glyph>
<glyph name="eight" format="2">
  <advance width="548"/>
  <unicode hex="0038"/>
  <outline>
    <contour>
      <point x="39" y="200" type="curve" smooth="yes"/>
      <point x="39" y="70"/>
      <point x="114" y="-11"/>
      <point x="264" y="-11" type="curve" smooth="yes"/>
      <point x="414" y="-11"/>
      <point x="492" y="70"/>
      <point x="492" y="200" type="curve" smooth="yes"/>
      <point x="492" y="290"/>
      <point x="437" y="342"/>
      <point x="370" y="370" type="curve"/>
      <point x="426" y="387"/>
      <point x="479" y="411"/>
      <point x="479" y="526" type="curve" smooth="yes"/>
      <point x="479" y="629"/>
      <point x="410" y="711"/>
      <point x="264" y="711" type="curve" smooth="yes"/>
      <point x="135" y="711"/>
      <point x="49" y="629"/>
      <point x="49" y="526" type="curve" smooth="yes"/>
      <point x="49" y="412"/>
      <point x="108" y="382"/>
      <point x="136" y="370" type="curve"/>
      <point x="85" y="340"/>
      <point x="39" y="290"/>
    </contour>
    <contour>
      <point x="139" y="206" type="curve" smooth="yes"/>
      <point x="139" y="277"/>
      <point x="192" y="334"/>
      <point x="264" y="334" type="curve" smooth="yes"/>
      <point x="344" y="333"/>
      <point x="392" y="292"/>
      <point x="392" y="206" type="curve" smooth="yes"/>
      <point x="392" y="122"/>
      <point x="347" y="78"/>
      <point x="264" y="78" type="curve" smooth="yes"/>
      <point x="181" y="78"/>
      <point x="139" y="122"/>
    </contour>
    <contour>
      <point x="150" y="519" type="curve" smooth="yes"/>
      <point x="150" y="576"/>
      <point x="182" y="622"/>
      <point x="264" y="622" type="curve" smooth="yes"/>
      <point x="346" y="622"/>
      <point x="378" y="576"/>
      <point x="378" y="519" type="curve" smooth="yes"/>
      <point x="378" y="459"/>
      <point x="345" y="408"/>
      <point x="264" y="408" type="curve" smooth="yes"/>
      <point x="182" y="408"/>
      <point x="150" y="459"/>
    </contour>
  </outline>
</glyph>
<glyph name="nine" format="2">
  <advance width="528"/>
  <unicode hex="0039"/>
  <outline>
    <contour>
      <point x="136" y="470" type="curve" smooth="yes"/>
      <point x="136" y="552"/>
      <point x="177" y="622"/>
      <point x="265" y="622" type="curve" smooth="yes"/>
      <point x="380" y="622"/>
      <point x="394" y="552"/>
      <point x="394" y="470" type="curve" smooth="yes"/>
      <point x="394" y="358"/>
      <point x="314" y="329"/>
      <point x="253" y="329" type="curve" smooth="yes"/>
      <point x="207" y="329"/>
      <point x="136" y="357"/>
    </contour>
    <contour>
      <point x="58" y="134" type="curve"/>
      <point x="87" y="46"/>
      <point x="147" y="-11"/>
      <point x="260" y="-11" type="curve" smooth="yes"/>
      <point x="439" y="-11"/>
      <point x="493" y="156"/>
      <point x="493" y="403" type="curve" smooth="yes"/>
      <point x="493" y="584"/>
      <point x="436" y="711"/>
      <point x="261" y="711" type="curve" smooth="yes"/>
      <point x="131" y="711"/>
      <point x="36" y="619"/>
      <point x="36" y="477" type="curve" smooth="yes"/>
      <point x="36" y="328"/>
      <point x="130" y="247"/>
      <point x="245" y="247" type="curve" smooth="yes"/>
      <point x="314" y="247"/>
      <point x="365" y="282"/>
      <point x="391" y="332" type="curve"/>
      <point x="394" y="332" type="line"/>
      <point x="382" y="134"/>
      <point x="355" y="78"/>
      <point x="263" y="78" type="curve" smooth="yes"/>
      <point x="192" y="78"/>
      <point x="177" y="99"/>
      <point x="159" y="134" type="curve"/>
      <point x="143" y="134"/>
      <point x="71" y="134"/>
    </contour>
  </outline>
</glyph>
<glyph name="A" format="2">
  <advance width="430"/>
  <unicode hex="0041"/>
  <anchor x="215" y="740" name="top"/>
  <anchor x="210" y="639" name="t.ring"/>
  <anchor x="210" y="-40" name="bottom"/>
  <anchor x="384" y="0" name="b.ogonek"/>
  <outline>
    <contour>
      <point x="102" y="187" type="line"/>
      <point x="330" y="187" type="line"/>
      <point x="330" y="276" type="line"/>
      <point x="102" y="276" type="line"/>
    </contour>
    <contour>
      <point x="10" y="0" type="line"/>
      <point x="102" y="0" type="line"/>
      <point x="196" y="407" type="line"/>
      <point x="247" y="673" type="line"/>
      <point x="183" y="673" type="line"/>
      <point x="234" y="407" type="line"/>
      <point x="327" y="0" type="line"/>
      <point x="420" y="0" type="line"/>
      <point x="264" y="680" type="line"/>
      <point x="166" y="680" type="line"/>
    </contour>
  </outline>
  <guideline angle="90" x="210" y="0"/>
  <guideline angle="77.0976" x="18" y="0"/>
  <guideline angle="257.1" x="232" y="634"/>
  <guideline angle="102.9" x="334" y="0"/>
  <guideline angle="282.902" x="245" y="680"/>
</glyph>
<glyph name="B" format="2">
  <advance width="485"/>
  <unicode hex="0042"/>
  <anchor x="224" y="-40" name="bottom"/>
  <anchor x="224" y="740" name="top"/>
  <outline>
    <contour>
      <point x="59" y="0" type="line"/>
      <point x="152" y="0" type="line"/>
      <point x="152" y="680" type="line"/>
      <point x="59" y="680" type="line"/>
    </contour>
    <contour>
      <point x="104" y="0" type="line"/>
      <point x="233" y="0" type="line" smooth="yes"/>
      <point x="378" y="0"/>
      <point x="437" y="58"/>
      <point x="437" y="200" type="curve" smooth="yes"/>
      <point x="437" y="305"/>
      <point x="396" y="361"/>
      <point x="305" y="381" type="curve"/>
      <point x="317" y="357" type="line"/>
      <point x="380" y="385"/>
      <point x="419" y="443"/>
      <point x="419" y="508" type="curve" smooth="yes"/>
      <point x="419" y="628"/>
      <point x="364" y="680"/>
      <point x="237" y="680" type="curve" smooth="yes"/>
      <point x="104" y="680" type="line"/>
      <point x="104" y="590" type="line"/>
      <point x="241" y="590" type="line" smooth="yes"/>
      <point x="296" y="590"/>
      <point x="325" y="560"/>
      <point x="325" y="504" type="curve" smooth="yes"/>
      <point x="325" y="444"/>
      <point x="283" y="412"/>
      <point x="228" y="412" type="curve" smooth="yes"/>
      <point x="104" y="412" type="line"/>
      <point x="104" y="322" type="line"/>
      <point x="230" y="322" type="line" smooth="yes"/>
      <point x="308" y="322"/>
      <point x="343" y="285"/>
      <point x="343" y="203" type="curve" smooth="yes"/>
      <point x="343" y="125"/>
      <point x="308" y="90"/>
      <point x="230" y="90" type="curve" smooth="yes"/>
      <point x="104" y="90" type="line"/>
    </contour>
  </outline>
  <guideline angle="0" x="0" y="42"/>
  <guideline angle="0" x="0" y="654"/>
  <guideline angle="0" x="0" y="382"/>
  <guideline angle="0" x="0" y="360"/>
  <guideline angle="0" x="0" y="127"/>
  <guideline angle="0" x="0" y="536"/>
  <guideline angle="90" x="224" y="0"/>
</glyph>
<glyph name="C" format="2">
  <advance width="527"/>
  <unicode hex="0043"/>
  <anchor x="269" y="740" name="top"/>
  <anchor x="269" y="-60" name="bottom"/>
  <anchor x="245" y="0" name="b.cedilla"/>
  <outline>
    <contour>
      <point x="48" y="340" type="curve" smooth="yes"/>
      <point x="48" y="119"/>
      <point x="128" y="-12"/>
      <point x="269" y="-12" type="curve" smooth="yes"/>
      <point x="389" y="-12"/>
      <point x="454" y="75"/>
      <point x="469" y="187" type="curve"/>
      <point x="376" y="187" type="line"/>
      <point x="361" y="122"/>
      <point x="327" y="78"/>
      <point x="269" y="78" type="curve" smooth="yes"/>
      <point x="182" y="78"/>
      <point x="142" y="172"/>
      <point x="142" y="340" type="curve" smooth="yes"/>
      <point x="142" y="508"/>
      <point x="182" y="602"/>
      <point x="269" y="602" type="curve" smooth="yes"/>
      <point x="344" y="602"/>
      <point x="374" y="542"/>
      <point x="389" y="455" type="curve"/>
      <point x="479" y="455" type="line"/>
      <point x="457" y="597"/>
      <point x="392" y="692"/>
      <point x="269" y="692" type="curve" smooth="yes"/>
      <point x="128" y="692"/>
      <point x="48" y="561"/>
    </contour>
  </outline>
  <guideline angle="90" name="h_1" x="269" y="0"/>
</glyph>
<glyph name="D" format="2">
  <advance width="491"/>
  <unicode hex="0044"/>
  <anchor x="221" y="740" name="top"/>
  <anchor x="221" y="-40" name="bottom"/>
  <anchor x="178" y="0" name="b.cedilla"/>
  <outline>
    <contour>
      <point x="59" y="0" type="line"/>
      <point x="152" y="0" type="line"/>
      <point x="152" y="680" type="line"/>
      <point x="59" y="680" type="line"/>
    </contour>
    <contour>
      <point x="73" y="0" type="line"/>
      <point x="221" y="0" type="line" smooth="yes"/>
      <point x="371" y="0"/>
      <point x="443" y="139"/>
      <point x="443" y="340" type="curve" smooth="yes"/>
      <point x="443" y="538"/>
      <point x="370" y="680"/>
      <point x="221" y="680" type="curve" smooth="yes"/>
      <point x="73" y="680" type="line"/>
      <point x="73" y="590" type="line"/>
      <point x="221" y="590" type="line" smooth="yes"/>
      <point x="319" y="590"/>
      <point x="350" y="483"/>
      <point x="350" y="340" type="curve" smooth="yes"/>
      <point x="350" y="233"/>
      <point x="317" y="90"/>
      <point x="221" y="90" type="curve" smooth="yes"/>
      <point x="73" y="90" type="line"/>
    </contour>
  </outline>
  <guideline angle="90" name="h_1" x="221" y="0"/>
</glyph>
<glyph name="E" format="2">
  <advance width="401"/>
  <unicode hex="0045"/>
  <anchor x="203" y="740" name="top"/>
  <anchor x="203" y="-40" name="bottom"/>
  <anchor x="203" y="0" name="b.cedilla"/>
  <outline>
    <contour>
      <point x="59" y="0" type="line"/>
      <point x="152" y="0" type="line"/>
      <point x="152" y="680" type="line"/>
      <point x="59" y="680" type="line"/>
    </contour>
    <contour>
      <point x="82" y="302" type="line"/>
      <point x="333" y="302" type="line"/>
      <point x="333" y="392" type="line"/>
      <point x="82" y="392" type="line"/>
    </contour>
    <contour>
      <point x="83" y="590" type="line"/>
      <point x="363" y="590" type="line"/>
      <point x="363" y="680" type="line"/>
      <point x="83" y="680" type="line"/>
    </contour>
    <contour>
      <point x="83" y="0" type="line"/>
      <point x="363" y="0" type="line"/>
      <point x="363" y="90" type="line"/>
      <point x="83" y="90" type="line"/>
    </contour>
  </outline>
  <guideline angle="90" name="h_1" x="203" y="0"/>
</glyph>
<glyph name="G" format="2">
  <advance width="515"/>
  <unicode hex="0047"/>
  <anchor x="260" y="740" name="top"/>
  <anchor x="260" y="-40" name="bottom"/>
  <outline>
    <contour>
      <point x="48" y="340" type="curve" smooth="yes"/>
      <point x="48" y="119"/>
      <point x="128" y="-12"/>
      <point x="269" y="-12" type="curve" smooth="yes"/>
      <point x="315" y="-12"/>
      <point x="360" y="12"/>
      <point x="387" y="46" type="curve"/>
      <point x="390" y="-1" type="line"/>
      <point x="473" y="-1" type="line"/>
      <point x="473" y="314" type="line"/>
      <point x="260" y="314" type="line"/>
      <point x="260" y="238" type="line"/>
      <point x="383" y="238" type="line"/>
      <point x="383" y="200" type="line" smooth="yes"/>
      <point x="383" y="132"/>
      <point x="337" y="78"/>
      <point x="269" y="78" type="curve" smooth="yes"/>
      <point x="182" y="78"/>
      <point x="142" y="172"/>
      <point x="142" y="340" type="curve" smooth="yes"/>
      <point x="142" y="508"/>
      <point x="182" y="602"/>
      <point x="269" y="602" type="curve" smooth="yes"/>
      <point x="344" y="602"/>
      <point x="374" y="542"/>
      <point x="389" y="455" type="curve"/>
      <point x="479" y="455" type="line"/>
      <point x="457" y="597"/>
      <point x="392" y="692"/>
      <point x="269" y="692" type="curve" smooth="yes"/>
      <point x="128" y="692"/>
      <point x="48" y="561"/>
    </contour>
  </outline>
  <guideline angle="90" name="h_1" x="260" y="0"/>
</glyph>
<glyph name="H" format="2">
  <advance width="503"/>
  <unicode hex="0048"/>
  <anchor x="251" y="740" name="top"/>
  <anchor x="251" y="-40" name="bottom"/>
  <anchor x="376" y="0" name="b.cedilla"/>
  <outline>
    <contour>
      <point x="59" y="0" type="line"/>
      <point x="152" y="0" type="line"/>
      <point x="152" y="680" type="line"/>
      <point x="59" y="680" type="line"/>
    </contour>
    <contour>
      <point x="89" y="283" type="line"/>
      <point x="401" y="283" type="line"/>
      <point x="401" y="373" type="line"/>
      <point x="89" y="373" type="line"/>
    </contour>
    <contour>
      <point x="351" y="0" type="line"/>
      <point x="444" y="0" type="line"/>
      <point x="444" y="680" type="line"/>
      <point x="351" y="680" type="line"/>
    </contour>
  </outline>
  <guideline angle="90" name="h_1" x="251" y="0"/>
</glyph>
<glyph name="J" format="2">
  <advance width="264"/>
  <unicode hex="004A"/>
  <anchor x="158" y="740" name="top"/>
  <outline>
    <contour>
      <point x="38" y="0" type="line"/>
      <point x="69" y="0" type="line" smooth="yes"/>
      <point x="172" y="0"/>
      <point x="205" y="75"/>
      <point x="205" y="182" type="curve" smooth="yes"/>
      <point x="205" y="680" type="line"/>
      <point x="111" y="680" type="line"/>
      <point x="111" y="178" type="line" smooth="yes"/>
      <point x="111" y="114"/>
      <point x="91" y="98"/>
      <point x="66" y="98" type="curve" smooth="yes"/>
      <point x="38" y="98" type="line"/>
    </contour>
  </outline>
</glyph>
<glyph name="K" format="2">
  <advance width="467"/>
  <unicode hex="004B"/>
  <anchor x="246" y="-40" name="bottom"/>
  <anchor x="240" y="740" name="top"/>
  <outline>
    <contour>
      <point x="59" y="0" type="line"/>
      <point x="152" y="0" type="line"/>
      <point x="152" y="680" type="line"/>
      <point x="59" y="680" type="line"/>
    </contour>
    <contour>
      <point x="129" y="129" type="line"/>
      <point x="427" y="680" type="line"/>
      <point x="320" y="680" type="line"/>
      <point x="129" y="322" type="line"/>
    </contour>
    <contour>
      <point x="226" y="332" type="line"/>
      <point x="348" y="0" type="line"/>
      <point x="457" y="0" type="line"/>
      <point x="290" y="450" type="line"/>
    </contour>
  </outline>
  <guideline angle="0" x="0" y="350"/>
  <guideline angle="289.429" x="287" y="421"/>
  <guideline angle="109.78" x="353" y="0"/>
  <guideline angle="62.1794" x="214" y="319"/>
  <guideline angle="90" name="h_1" x="240" y="0"/>
</glyph>
<glyph name="L" format="2">
  <advance width="418"/>
  <unicode hex="004C"/>
  <anchor x="243" y="740" name="top"/>
  <anchor x="243" y="-40" name="bottom"/>
  <outline>
    <contour>
      <point x="117" y="0" type="line"/>
      <point x="382" y="0" type="line"/>
      <point x="382" y="84" type="line"/>
      <point x="117" y="84" type="line"/>
    </contour>
    <contour>
      <point x="59" y="0" type="line"/>
      <point x="152" y="0" type="line"/>
      <point x="152" y="680" type="line"/>
      <point x="59" y="680" type="line"/>
    </contour>
  </outline>
  <guideline angle="90" name="h_1" x="243" y="0"/>
</glyph>
<glyph name="M" format="2">
  <advance width="637"/>
  <unicode hex="004D"/>
  <anchor x="313" y="740" name="top"/>
  <anchor x="313" y="-40" name="bottom"/>
  <outline>
    <contour>
      <point x="59" y="0" type="line"/>
      <point x="153" y="0" type="line"/>
      <point x="153" y="680" type="line"/>
      <point x="59" y="680" type="line"/>
    </contour>
    <contour>
      <point x="68" y="680" type="line"/>
      <point x="269" y="0" type="line"/>
      <point x="347" y="0" type="line"/>
      <point x="347" y="29"/>
      <point x="308" y="188"/>
      <point x="291" y="243" type="curve" smooth="yes"/>
      <point x="161" y="680" type="line"/>
    </contour>
    <contour>
      <point x="289" y="0" type="curve"/>
      <point x="367" y="0" type="line"/>
      <point x="568" y="680" type="line"/>
      <point x="476" y="680" type="line"/>
      <point x="345" y="243" type="line" smooth="yes"/>
      <point x="329" y="188"/>
      <point x="289" y="29"/>
    </contour>
    <contour>
      <point x="484" y="0" type="line"/>
      <point x="578" y="0" type="line"/>
      <point x="578" y="680" type="line"/>
      <point x="484" y="680" type="line"/>
    </contour>
  </outline>
  <guideline angle="90" name="h_1" x="313" y="0"/>
  <guideline angle="0" x="0" y="230"/>
  <guideline angle="90" x="482" y="0"/>
</glyph>
<glyph name="N" format="2">
  <advance width="546"/>
  <unicode hex="004E"/>
  <anchor x="271" y="740" name="top"/>
  <anchor x="271" y="-40" name="bottom"/>
  <outline>
    <contour>
      <point x="59" y="0" type="line"/>
      <point x="153" y="0" type="line"/>
      <point x="153" y="443" type="line" smooth="yes"/>
      <point x="153" y="464"/>
      <point x="153" y="491"/>
      <point x="150" y="523" type="curve"/>
      <point x="129" y="523" type="line"/>
      <point x="394" y="0" type="line"/>
      <point x="487" y="0" type="line"/>
      <point x="487" y="680" type="line"/>
      <point x="394" y="680" type="line"/>
      <point x="394" y="237" type="line" smooth="yes"/>
      <point x="394" y="216"/>
      <point x="394" y="189"/>
      <point x="397" y="157" type="curve"/>
      <point x="418" y="157" type="line"/>
      <point x="153" y="680" type="line"/>
      <point x="59" y="680" type="line"/>
    </contour>
  </outline>
  <guideline angle="90" x="271" y="0"/>
</glyph>
<glyph name="O" format="2">
  <advance width="538"/>
  <unicode hex="004F"/>
  <anchor x="271" y="740" name="top"/>
  <anchor x="269" y="-40" name="bottom"/>
  <anchor x="269" y="0" name="b.ogonek"/>
  <outline>
    <contour>
      <point x="48" y="340" type="curve" smooth="yes"/>
      <point x="48" y="119"/>
      <point x="128" y="-12"/>
      <point x="269" y="-12" type="curve" smooth="yes"/>
      <point x="410" y="-12"/>
      <point x="490" y="119"/>
      <point x="490" y="340" type="curve" smooth="yes"/>
      <point x="490" y="561"/>
      <point x="410" y="692"/>
      <point x="269" y="692" type="curve" smooth="yes"/>
      <point x="128" y="692"/>
      <point x="48" y="561"/>
    </contour>
    <contour>
      <point x="142" y="340" type="curve" smooth="yes"/>
      <point x="142" y="508"/>
      <point x="182" y="602"/>
      <point x="269" y="602" type="curve" smooth="yes"/>
      <point x="356" y="602"/>
      <point x="396" y="508"/>
      <point x="396" y="340" type="curve" smooth="yes"/>
      <point x="396" y="172"/>
      <point x="356" y="78"/>
      <point x="269" y="78" type="curve" smooth="yes"/>
      <point x="182" y="78"/>
      <point x="142" y="172"/>
    </contour>
  </outline>
  <guideline angle="0" x="0" y="740"/>
  <guideline angle="90" x="269" y="0"/>
</glyph>
<glyph name="P" format="2">
  <advance width="453"/>
  <unicode hex="0050"/>
  <anchor x="210" y="740" name="top"/>
  <anchor x="210" y="-40" name="bottom"/>
  <outline>
    <contour>
      <point x="59" y="0" type="line"/>
      <point x="152" y="0" type="line"/>
      <point x="152" y="680" type="line"/>
      <point x="59" y="680" type="line"/>
    </contour>
    <contour>
      <point x="90" y="273" type="line"/>
      <point x="231" y="273" type="line" smooth="yes"/>
      <point x="338" y="273"/>
      <point x="408" y="355"/>
      <point x="408" y="483" type="curve" smooth="yes"/>
      <point x="408" y="621"/>
      <point x="355" y="680"/>
      <point x="231" y="680" type="curve" smooth="yes"/>
      <point x="90" y="680" type="line"/>
      <point x="90" y="590" type="line"/>
      <point x="231" y="590" type="line" smooth="yes"/>
      <point x="289" y="590"/>
      <point x="317" y="550"/>
      <point x="317" y="483" type="curve" smooth="yes"/>
      <point x="317" y="403"/>
      <point x="292" y="362"/>
      <point x="231" y="362" type="curve" smooth="yes"/>
      <point x="90" y="362" type="line"/>
    </contour>
  </outline>
  <guideline angle="90" name="h_1" x="210" y="0"/>
</glyph>
<glyph name="Q" format="2">
  <advance width="538"/>
  <unicode hex="0051"/>
  <anchor x="259" y="740" name="top"/>
  <outline>
    <contour>
      <point x="48" y="340" type="curve" smooth="yes"/>
      <point x="48" y="119"/>
      <point x="128" y="-12"/>
      <point x="269" y="-12" type="curve" smooth="yes"/>
      <point x="410" y="-12"/>
      <point x="490" y="119"/>
      <point x="490" y="340" type="curve" smooth="yes"/>
      <point x="490" y="561"/>
      <point x="410" y="692"/>
      <point x="269" y="692" type="curve" smooth="yes"/>
      <point x="128" y="692"/>
      <point x="48" y="561"/>
    </contour>
    <contour>
      <point x="142" y="340" type="curve" smooth="yes"/>
      <point x="142" y="508"/>
      <point x="182" y="602"/>
      <point x="269" y="602" type="curve" smooth="yes"/>
      <point x="356" y="602"/>
      <point x="396" y="508"/>
      <point x="396" y="340" type="curve" smooth="yes"/>
      <point x="396" y="172"/>
      <point x="356" y="78"/>
      <point x="269" y="78" type="curve" smooth="yes"/>
      <point x="182" y="78"/>
      <point x="142" y="172"/>
    </contour>
    <contour>
      <point x="329" y="23" type="line"/>
      <point x="410" y="-84" type="line"/>
      <point x="467" y="-7" type="line"/>
      <point x="395" y="90" type="line"/>
    </contour>
    <contour>
      <point x="269" y="104" type="line"/>
      <point x="302" y="60" type="line"/>
      <point x="371" y="124" type="line"/>
      <point x="328" y="180" type="line"/>
    </contour>
  </outline>
  <guideline angle="90" x="273" y="0"/>
</glyph>
<glyph name="T" format="2">
  <advance width="383"/>
  <unicode hex="0054"/>
  <anchor x="191" y="740" name="top"/>
  <anchor x="191" y="-40" name="bottom"/>
  <outline>
    <contour>
      <point x="10" y="596" type="line"/>
      <point x="373" y="596" type="line"/>
      <point x="373" y="680" type="line"/>
      <point x="10" y="680" type="line"/>
    </contour>
    <contour>
      <point x="145" y="0" type="line"/>
      <point x="238" y="0" type="line"/>
      <point x="238" y="680" type="line"/>
      <point x="145" y="680" type="line"/>
    </contour>
  </outline>
  <guideline angle="90" name="h_1" x="191" y="0"/>
  <guideline angle="0" x="0" y="596"/>
</glyph>
<glyph name="U" format="2">
  <advance width="468"/>
  <unicode hex="0055"/>
  <anchor x="234" y="740" name="top"/>
  <anchor x="234" y="-40" name="bottom"/>
  <outline>
    <contour>
      <point x="49" y="235" type="line" smooth="yes"/>
      <point x="49" y="86"/>
      <point x="100" y="-11"/>
      <point x="234" y="-11" type="curve" smooth="yes"/>
      <point x="368" y="-11"/>
      <point x="419" y="86"/>
      <point x="419" y="235" type="curve" smooth="yes"/>
      <point x="419" y="680" type="line"/>
      <point x="326" y="680" type="line"/>
      <point x="326" y="275" type="line" smooth="yes"/>
      <point x="326" y="123"/>
      <point x="294" y="89"/>
      <point x="234" y="89" type="curve" smooth="yes"/>
      <point x="174" y="89"/>
      <point x="143" y="123"/>
      <point x="143" y="275" type="curve" smooth="yes"/>
      <point x="143" y="680" type="line"/>
      <point x="49" y="680" type="line"/>
    </contour>
  </outline>
  <guideline angle="90" name="h_1" x="234" y="0"/>
</glyph>
<glyph name="V" format="2">
  <advance width="430"/>
  <unicode hex="0056"/>
  <anchor x="210" y="-40" name="bottom"/>
  <anchor x="210" y="740" name="top"/>
  <outline>
    <contour>
      <point x="10" y="680" type="line"/>
      <point x="166" y="0" type="line"/>
      <point x="243" y="0" type="line"/>
      <point x="243" y="29"/>
      <point x="217" y="187"/>
      <point x="203" y="243" type="curve" smooth="yes"/>
      <point x="103" y="680" type="line"/>
    </contour>
    <contour>
      <point x="188" y="0" type="curve"/>
      <point x="264" y="0" type="line"/>
      <point x="420" y="680" type="line"/>
      <point x="328" y="680" type="line"/>
      <point x="227" y="243" type="line" smooth="yes"/>
      <point x="214" y="187"/>
      <point x="188" y="29"/>
    </contour>
  </outline>
  <guideline angle="90" name="h_1" x="210" y="0"/>
  <guideline angle="0" x="0" y="230"/>
</glyph>
<glyph name="Z" format="2">
  <advance width="410"/>
  <unicode hex="005A"/>
  <anchor x="205" y="740" name="top"/>
  <anchor x="205" y="-40" name="bottom"/>
  <outline>
    <contour>
      <point x="38" y="0" type="line"/>
      <point x="375" y="0" type="line"/>
      <point x="375" y="90" type="line"/>
      <point x="108" y="90" type="line"/>
      <point x="117" y="45" type="line"/>
      <point x="374" y="603" type="line"/>
      <point x="374" y="680" type="line"/>
      <point x="39" y="680" type="line"/>
      <point x="39" y="590" type="line"/>
      <point x="304" y="590" type="line"/>
      <point x="295" y="635" type="line"/>
      <point x="38" y="77" type="line"/>
    </contour>
  </outline>
  <guideline angle="65.2351" x="46.5" y="80"/>
  <guideline angle="90" name="h_1" x="205" y="0"/>
</glyph>
<glyph name="bracketright" format="2">
  <advance width="373"/>
  <unicode hex="005D"/>
  <outline>
    <contour>
      <point x="70" y="-81" type="line"/>
      <point x="303" y="-81" type="line"/>
      <point x="303" y="780" type="line"/>
      <point x="70" y="780" type="line"/>
      <point x="70" y="708" type="line"/>
      <point x="210" y="708" type="line"/>
      <point x="210" y="-9" type="line"/>
      <point x="70" y="-9" type="line"/>
    </contour>
  </outline>
</glyph>
<glyph name="grave" format="2">
  <advance width="239"/>
  <unicode hex="0060"/>
  <outline>
    <contour>
      <point x="36" y="692" type="line"/>
      <point x="140" y="530" type="line"/>
      <point x="190" y="530" type="line"/>
      <point x="125" y="692" type="line"/>
    </contour>
  </outline>
  <guideline angle="0" x="0" y="520"/>
  <guideline angle="0" x="0" y="700"/>
</glyph>
<glyph name="a" format="2">
  <advance width="414"/>
  <unicode hex="0061"/>
  <anchor x="202" y="530" name="top"/>
  <anchor x="202" y="-40" name="bottom"/>
  <anchor x="202" y="530" name="t.ring"/>
  <outline>
    <contour>
      <point x="59" y="326" type="curve"/>
      <point x="142" y="326" type="line"/>
      <point x="145" y="373"/>
      <point x="166" y="400"/>
      <point x="200" y="400" type="curve" smooth="yes"/>
      <point x="235" y="400"/>
      <point x="262" y="368"/>
      <point x="262" y="327" type="curve" smooth="yes"/>
      <point x="262" y="62" type="line"/>
      <point x="277" y="0" type="line"/>
      <point x="348" y="0" type="line"/>
      <point x="348" y="315" type="line" smooth="yes"/>
      <point x="348" y="416"/>
      <point x="295" y="472"/>
      <point x="202" y="472" type="curve" smooth="yes"/>
      <point x="121" y="472"/>
      <point x="64" y="412"/>
    </contour>
    <contour>
      <point x="40" y="123" type="curve" smooth="yes"/>
      <point x="40" y="43"/>
      <point x="86" y="-12"/>
      <point x="153" y="-12" type="curve" smooth="yes"/>
      <point x="206" y="-12"/>
      <point x="256" y="18"/>
      <point x="285" y="64" type="curve"/>
      <point x="285" y="151" type="line"/>
      <point x="253" y="97"/>
      <point x="211" y="64"/>
      <point x="174" y="64" type="curve" smooth="yes"/>
      <point x="144" y="64"/>
      <point x="125" y="87"/>
      <point x="125" y="123" type="curve" smooth="yes"/>
      <point x="125" y="173"/>
      <point x="160" y="210"/>
      <point x="222" y="223" type="curve" smooth="yes"/>
      <point x="290" y="237" type="line"/>
      <point x="290" y="290" type="line"/>
      <point x="217" y="281" type="line" smooth="yes"/>
      <point x="103" y="267"/>
      <point x="40" y="209"/>
    </contour>
  </outline>
  <guideline angle="90" name="h_1" x="202" y="0"/>
</glyph>
<glyph name="c" format="2">
  <advance width="412"/>
  <unicode hex="0063"/>
  <anchor x="212" y="530" name="top"/>
  <anchor x="212" y="-40" name="bottom"/>
  <anchor x="178" y="0" name="b.cedilla"/>
  <outline>
    <contour>
      <point x="40" y="230" type="curve" smooth="yes"/>
      <point x="40" y="86"/>
      <point x="102" y="-12"/>
      <point x="205" y="-12" type="curve" smooth="yes"/>
      <point x="291" y="-12"/>
      <point x="354" y="50"/>
      <point x="372" y="153" type="curve"/>
      <point x="286" y="153" type="line"/>
      <point x="274" y="92"/>
      <point x="248" y="64"/>
      <point x="205" y="64" type="curve" smooth="yes"/>
      <point x="151" y="64"/>
      <point x="126" y="126"/>
      <point x="126" y="230" type="curve" smooth="yes"/>
      <point x="126" y="337"/>
      <point x="163" y="396"/>
      <point x="213" y="396" type="curve" smooth="yes"/>
      <point x="253" y="396"/>
      <point x="280" y="365"/>
      <point x="286" y="317" type="curve"/>
      <point x="372" y="317" type="line"/>
      <point x="355" y="417"/>
      <point x="302" y="472"/>
      <point x="212" y="472" type="curve" smooth="yes"/>
      <point x="116" y="472"/>
      <point x="40" y="364"/>
    </contour>
  </outline>
  <guideline angle="90" x="372" y="0"/>
  <guideline angle="90" name="h_1" x="212" y="0"/>
</glyph>
<glyph name="g" format="2">
  <advance width="437"/>
  <unicode hex="0067"/>
  <anchor x="219" y="530" name="top"/>
  <outline>
    <contour>
      <point x="52" y="-51" type="line"/>
      <point x="60" y="-110"/>
      <point x="103" y="-200"/>
      <point x="206" y="-200" type="curve" smooth="yes"/>
      <point x="299" y="-200"/>
      <point x="371" y="-146"/>
      <point x="371" y="27" type="curve" smooth="yes"/>
      <point x="371" y="30" type="line"/>
      <point x="286" y="30" type="line"/>
      <point x="286" y="23" type="line" smooth="yes"/>
      <point x="286" y="-88"/>
      <point x="254" y="-128"/>
      <point x="208" y="-128" type="curve" smooth="yes"/>
      <point x="184" y="-128"/>
      <point x="151" y="-107"/>
      <point x="137" y="-51" type="curve"/>
    </contour>
    <contour>
      <point x="40" y="230" type="curve" smooth="yes"/>
      <point x="40" y="144"/>
      <point x="56" y="0"/>
      <point x="191" y="0" type="curve" smooth="yes"/>
      <point x="238" y="0"/>
      <point x="279" y="21"/>
      <point x="301" y="58" type="curve"/>
      <point x="306" y="58" type="line"/>
      <point x="306" y="400" type="line"/>
      <point x="301" y="400" type="line"/>
      <point x="282" y="442"/>
      <point x="237" y="472"/>
      <point x="190" y="472" type="curve" smooth="yes"/>
      <point x="88" y="472"/>
      <point x="40" y="355"/>
    </contour>
    <contour>
      <point x="125" y="231" type="curve" smooth="yes"/>
      <point x="125" y="332"/>
      <point x="150" y="398"/>
      <point x="209" y="398" type="curve" smooth="yes"/>
      <point x="251" y="398"/>
      <point x="288" y="344"/>
      <point x="288" y="249" type="curve" smooth="yes"/>
      <point x="288" y="209" type="line" smooth="yes"/>
      <point x="288" y="146"/>
      <point x="262" y="76"/>
      <point x="209" y="76" type="curve" smooth="yes"/>
      <point x="142" y="76"/>
      <point x="125" y="163"/>
    </contour>
    <contour>
      <point x="286" y="0" type="line"/>
      <point x="371" y="0" type="line"/>
      <point x="371" y="460" type="line"/>
      <point x="301" y="460" type="line"/>
      <point x="288" y="399" type="line"/>
      <point x="288" y="58" type="line"/>
      <point x="286" y="37" type="line"/>
    </contour>
  </outline>
  <guideline angle="90" name="h_1" x="219" y="0"/>
</glyph>
<glyph name="k" format="2">
  <advance width="384"/>
  <unicode hex="006B"/>
  <anchor x="216" y="-40" name="bottom"/>
  <anchor x="219" y="740" name="top"/>
  <outline>
    <contour>
      <point x="126" y="96" type="line"/>
      <point x="348" y="460" type="line"/>
      <point x="249" y="460" type="line"/>
      <point x="126" y="252" type="line"/>
    </contour>
    <contour>
      <point x="153" y="227" type="line"/>
      <point x="266" y="0" type="line"/>
      <point x="365" y="0" type="line"/>
      <point x="208" y="318" type="line"/>
    </contour>
    <contour>
      <point x="66" y="0" type="line"/>
      <point x="151" y="0" type="line"/>
      <point x="151" y="700" type="line"/>
      <point x="66" y="700" type="line"/>
    </contour>
  </outline>
  <guideline angle="59.6324" x="194" y="300"/>
  <guideline angle="295.946" x="209" y="279"/>
  <guideline angle="116.22" x="269" y="0"/>
  <guideline angle="90" name="h_1" x="219" y="0"/>
</glyph>
<glyph name="n" format="2">
  <advance width="442"/>
  <unicode hex="006E"/>
  <anchor x="222" y="530" name="top"/>
  <anchor x="222" y="-40" name="bottom"/>
  <outline>
    <contour>
      <point x="66" y="0" type="line"/>
      <point x="152" y="0" type="line"/>
      <point x="152" y="425" type="line"/>
      <point x="148" y="425" type="line"/>
      <point x="134" y="460" type="line"/>
      <point x="66" y="460" type="line"/>
    </contour>
    <contour>
      <point x="97" y="270" type="line"/>
      <point x="152" y="270" type="line"/>
      <point x="152" y="341"/>
      <point x="181" y="397"/>
      <point x="229" y="397" type="curve" smooth="yes"/>
      <point x="270" y="397"/>
      <point x="290" y="368"/>
      <point x="290" y="310" type="curve" smooth="yes"/>
      <point x="290" y="0" type="line"/>
      <point x="376" y="0" type="line"/>
      <point x="376" y="332" type="line" smooth="yes"/>
      <point x="376" y="420"/>
      <point x="331" y="472"/>
      <point x="253" y="472" type="curve" smooth="yes"/>
      <point x="185" y="472"/>
      <point x="137" y="428"/>
      <point x="118" y="355" type="curve"/>
      <point x="156" y="355" type="line"/>
      <point x="156" y="374" type="line"/>
      <point x="97" y="374" type="line"/>
    </contour>
  </outline>
  <guideline angle="90" name="h_1" x="222" y="0"/>
</glyph>
<glyph name="q" format="2">
  <advance width="437"/>
  <unicode hex="0071"/>
  <outline>
    <contour>
      <point x="301" y="460" type="line"/>
      <point x="288" y="402" type="line"/>
      <point x="288" y="100" type="line"/>
      <point x="286" y="93"/>
      <point x="285" y="87"/>
      <point x="285" y="80" type="curve" smooth="yes"/>
      <point x="285" y="-200" type="line"/>
      <point x="371" y="-200" type="line"/>
      <point x="371" y="460" type="line"/>
    </contour>
    <contour>
      <point x="290" y="58" type="line"/>
      <point x="290" y="400" type="line"/>
      <point x="285" y="400" type="line"/>
      <point x="266" y="442"/>
      <point x="237" y="472"/>
      <point x="190" y="472" type="curve" smooth="yes"/>
      <point x="88" y="472"/>
      <point x="40" y="355"/>
      <point x="40" y="230" type="curve" smooth="yes"/>
      <point x="40" y="144"/>
      <point x="56" y="-12"/>
      <point x="191" y="-12" type="curve" smooth="yes"/>
      <point x="238" y="-12"/>
      <point x="263" y="21"/>
      <point x="285" y="58" type="curve"/>
    </contour>
    <contour>
      <point x="288" y="209" type="line" smooth="yes"/>
      <point x="288" y="146"/>
      <point x="262" y="64"/>
      <point x="209" y="64" type="curve" smooth="yes"/>
      <point x="142" y="64"/>
      <point x="125" y="163"/>
      <point x="125" y="231" type="curve" smooth="yes"/>
      <point x="125" y="332"/>
      <point x="150" y="398"/>
      <point x="209" y="398" type="curve" smooth="yes"/>
      <point x="251" y="398"/>
      <point x="288" y="344"/>
      <point x="288" y="249" type="curve" smooth="yes"/>
    </contour>
  </outline>
</glyph>
<glyph name="u" format="2">
  <advance width="442"/>
  <unicode hex="0075"/>
  <anchor x="221" y="530" name="top"/>
  <anchor x="221" y="-40" name="bottom"/>
  <outline>
    <contour>
      <point x="66" y="135" type="line" smooth="yes"/>
      <point x="66" y="45"/>
      <point x="120" y="-12"/>
      <point x="193" y="-12" type="curve" smooth="yes"/>
      <point x="254" y="-12"/>
      <point x="301" y="21"/>
      <point x="331" y="89" type="curve"/>
      <point x="294" y="89" type="line"/>
      <point x="294" y="65" type="line"/>
      <point x="342" y="65" type="line"/>
      <point x="342" y="189" type="line"/>
      <point x="290" y="189" type="line"/>
      <point x="290" y="107"/>
      <point x="262" y="64"/>
      <point x="216" y="64" type="curve" smooth="yes"/>
      <point x="170" y="64"/>
      <point x="152" y="89"/>
      <point x="152" y="152" type="curve" smooth="yes"/>
      <point x="152" y="460" type="line"/>
      <point x="66" y="460" type="line"/>
    </contour>
    <contour>
      <point x="290" y="28" type="line"/>
      <point x="294" y="28" type="line"/>
      <point x="308" y="0" type="line"/>
      <point x="376" y="0" type="line"/>
      <point x="376" y="460" type="line"/>
      <point x="290" y="460" type="line"/>
    </contour>
  </outline>
  <guideline angle="90" name="h_1" x="221" y="0"/>
</glyph>
<glyph name="x" format="2">
  <advance width="349"/>
  <unicode hex="0078"/>
  <anchor x="175" y="-40" name="bottom"/>
  <anchor x="175" y="530" name="top"/>
  <outline>
    <contour>
      <point x="19" y="0" type="line"/>
      <point x="103" y="0" type="line"/>
      <point x="190" y="188" type="line"/>
      <point x="211" y="223" type="line"/>
      <point x="322" y="460" type="line"/>
      <point x="238" y="460" type="line"/>
      <point x="159" y="287" type="line"/>
      <point x="139" y="252" type="line"/>
    </contour>
    <contour>
      <point x="139" y="224" type="line"/>
      <point x="158" y="188" type="line"/>
      <point x="246" y="0" type="line"/>
      <point x="330" y="0" type="line"/>
      <point x="211" y="253" type="line"/>
      <point x="191" y="287" type="line"/>
      <point x="111" y="460" type="line"/>
      <point x="27" y="460" type="line"/>
    </contour>
  </outline>
  <guideline angle="0" x="0" y="280"/>
  <guideline angle="0" x="0" y="197"/>
  <guideline angle="90" name="h_1" x="175" y="0"/>
</glyph>
<glyph name="y" format="2">
  <advance width="347"/>
  <unicode hex="0079"/>
  <anchor x="175" y="530" name="top"/>
  <anchor x="290" y="-40" name="bottom"/>
  <outline>
    <contour>
      <point x="33" y="-188" type="line"/>
      <point x="62" y="-198"/>
      <point x="77" y="-200"/>
      <point x="97" y="-200" type="curve" smooth="yes"/>
      <point x="150" y="-200"/>
      <point x="179" y="-163"/>
      <point x="207" y="-49" type="curve" smooth="yes"/>
      <point x="336" y="460" type="line"/>
      <point x="255" y="460" type="line"/>
      <point x="131" y="-47" type="line"/>
      <point x="121" y="-96"/>
      <point x="104" y="-128"/>
      <point x="84" y="-128" type="curve" smooth="yes"/>
      <point x="69" y="-128"/>
      <point x="48" y="-123"/>
      <point x="33" y="-116" type="curve"/>
    </contour>
    <contour>
      <point x="11" y="460" type="line"/>
      <point x="152" y="-65" type="line"/>
      <point x="198" y="72" type="line"/>
      <point x="95" y="460" type="line"/>
    </contour>
  </outline>
  <guideline angle="90" x="175" y="0"/>
</glyph>
<glyph name="z" format="2">
  <advance width="353"/>
  <unicode hex="007A"/>
  <anchor x="174" y="530" name="top"/>
  <anchor x="174" y="-40" name="bottom"/>
  <outline>
    <contour>
      <point x="30" y="0" type="line"/>
      <point x="324" y="0" type="line"/>
      <point x="324" y="76" type="line"/>
      <point x="109" y="76" type="line"/>
      <point x="115" y="38" type="line"/>
      <point x="324" y="391" type="line"/>
      <point x="324" y="460" type="line"/>
      <point x="30" y="460" type="line"/>
      <point x="30" y="384" type="line"/>
      <point x="253" y="384" type="line"/>
      <point x="247" y="422" type="line"/>
      <point x="30" y="69" type="line"/>
    </contour>
  </outline>
  <guideline angle="90" name="h_1" x="174" y="0"/>
</glyph>
<glyph name="asciitilde" format="2">
  <advance width="545"/>
  <unicode hex="007E"/>
  <outline>
    <contour>
      <point x="58" y="178" type="curve"/>
      <point x="121" y="178" type="line"/>
      <point x="131" y="206"/>
      <point x="170" y="218"/>
      <point x="197" y="218" type="curve" smooth="yes"/>
      <point x="250" y="218"/>
      <point x="303" y="178"/>
      <point x="357" y="178" type="curve" smooth="yes"/>
      <point x="409" y="178"/>
      <point x="461" y="205"/>
      <point x="487" y="309" type="curve"/>
      <point x="424" y="309" type="line"/>
      <point x="414" y="277"/>
      <point x="385" y="269"/>
      <point x="357" y="269" type="curve" smooth="yes"/>
      <point x="306" y="269"/>
      <point x="254" y="309"/>
      <point x="197" y="309" type="curve" smooth="yes"/>
      <point x="145" y="309"/>
      <point x="84" y="273"/>
    </contour>
  </outline>
</glyph>
<glyph name="cent" format="2">
  <advance width="495"/>
  <unicode hex="00A2"/>
  <outline>
    <contour>
      <point x="31" y="230" type="curve" smooth="yes"/>
      <point x="31" y="86"/>
      <point x="115" y="-12"/>
      <point x="240" y="-12" type="curve"/>
      <point x="240" y="64" type="line"/>
      <point x="174" y="64"/>
      <point x="123" y="116"/>
      <point x="123" y="230" type="curve" smooth="yes"/>
      <point x="123" y="349"/>
      <point x="173" y="396"/>
      <point x="240" y="396" type="curve"/>
      <point x="240" y="472" type="line"/>
      <point x="123" y="472"/>
      <point x="31" y="364"/>
    </contour>
    <contour>
      <point x="112" y="-164" type="line"/>
      <point x="161" y="-178" type="line"/>
      <point x="393" y="623" type="line"/>
      <point x="346" y="637" type="line"/>
    </contour>
    <contour>
      <point x="240" y="-11" type="line"/>
      <point x="367" y="-11"/>
      <point x="423" y="78"/>
      <point x="441" y="154" type="curve"/>
      <point x="347" y="154" type="line"/>
      <point x="341" y="123"/>
      <point x="312" y="65"/>
      <point x="240" y="65" type="curve"/>
    </contour>
    <contour>
      <point x="240" y="395" type="line"/>
      <point x="314" y="395"/>
      <point x="342" y="332"/>
      <point x="345" y="316" type="curve"/>
      <point x="440" y="316" type="line"/>
      <point x="421" y="404"/>
      <point x="359" y="471"/>
      <point x="240" y="471" type="curve"/>
    </contour>
  </outline>
</glyph>
<glyph name="currency" format="2">
  <advance width="495"/>
  <unicode hex="00A4"/>
  <outline>
    <contour>
      <point x="59" y="315" type="curve" smooth="yes"/>
      <point x="59" y="210"/>
      <point x="142" y="128"/>
      <point x="247" y="128" type="curve" smooth="yes"/>
      <point x="352" y="128"/>
      <point x="434" y="211"/>
      <point x="434" y="315" type="curve" smooth="yes"/>
      <point x="434" y="419"/>
      <point x="350" y="504"/>
      <point x="247" y="504" type="curve" smooth="yes"/>
      <point x="143" y="504"/>
      <point x="59" y="420"/>
    </contour>
    <contour>
      <point x="139" y="316" type="curve" smooth="yes"/>
      <point x="139" y="376"/>
      <point x="187" y="424"/>
      <point x="247" y="424" type="curve" smooth="yes"/>
      <point x="307" y="424"/>
      <point x="355" y="376"/>
      <point x="355" y="316" type="curve" smooth="yes"/>
      <point x="355" y="256"/>
      <point x="307" y="208"/>
      <point x="247" y="208" type="curve" smooth="yes"/>
      <point x="187" y="208"/>
      <point x="139" y="256"/>
    </contour>
    <contour>
      <point x="28" y="484" type="line"/>
      <point x="103" y="409" type="line"/>
      <point x="158" y="464" type="line"/>
      <point x="84" y="540" type="line"/>
    </contour>
    <contour>
      <point x="338" y="463" type="line"/>
      <point x="394" y="407" type="line"/>
      <point x="467" y="480" type="line"/>
      <point x="411" y="536" type="line"/>
    </contour>
    <contour>
      <point x="28" y="153" type="line"/>
      <point x="84" y="97" type="line"/>
      <point x="153" y="166" type="line"/>
      <point x="97" y="222" type="line"/>
    </contour>
    <contour>
      <point x="339" y="170" type="line"/>
      <point x="411" y="98" type="line"/>
      <point x="466" y="152" type="line"/>
      <point x="394" y="225" type="line"/>
    </contour>
  </outline>
</glyph>
<glyph name="section" format="2">
  <advance width="465"/>
  <unicode hex="00A7"/>
  <outline>
    <contour>
      <point x="73" y="148" type="line"/>
      <point x="73" y="53"/>
      <point x="141" y="-12"/>
      <point x="240" y="-12" type="curve" smooth="yes"/>
      <point x="329" y="-12"/>
      <point x="389" y="41"/>
      <point x="389" y="118" type="curve" smooth="yes"/>
      <point x="389" y="160"/>
      <point x="368" y="201"/>
      <point x="342" y="218" type="curve"/>
      <point x="383" y="237"/>
      <point x="426" y="268"/>
      <point x="426" y="322" type="curve" smooth="yes"/>
      <point x="426" y="380"/>
      <point x="400" y="409"/>
      <point x="361" y="434" type="curve" smooth="yes"/>
      <point x="240" y="512" type="line" smooth="yes"/>
      <point x="180" y="551"/>
      <point x="170" y="562"/>
      <point x="170" y="579" type="curve" smooth="yes"/>
      <point x="170" y="612"/>
      <point x="202" y="620"/>
      <point x="229" y="620" type="curve" smooth="yes"/>
      <point x="274" y="620"/>
      <point x="290" y="595"/>
      <point x="290" y="550" type="curve"/>
      <point x="375" y="550" type="line"/>
      <point x="375" y="641"/>
      <point x="321" y="692"/>
      <point x="228" y="692" type="curve" smooth="yes"/>
      <point x="141" y="692"/>
      <point x="83" y="646"/>
      <point x="83" y="579" type="curve" smooth="yes"/>
      <point x="83" y="552"/>
      <point x="98" y="527"/>
      <point x="121" y="511" type="curve"/>
      <point x="76" y="494"/>
      <point x="40" y="453"/>
      <point x="40" y="397" type="curve" smooth="yes"/>
      <point x="40" y="345"/>
      <point x="72" y="302"/>
      <point x="137" y="264" type="curve" smooth="yes"/>
      <point x="244" y="200" type="line" smooth="yes"/>
      <point x="289" y="174"/>
      <point x="302" y="146"/>
      <point x="302" y="116" type="curve" smooth="yes"/>
      <point x="302" y="81"/>
      <point x="282" y="60"/>
      <point x="240" y="60" type="curve" smooth="yes"/>
      <point x="214" y="60"/>
      <point x="158" y="83"/>
      <point x="158" y="148" type="curve"/>
    </contour>
    <contour>
      <point x="174" y="325" type="line"/>
      <point x="146" y="343"/>
      <point x="123" y="361"/>
      <point x="123" y="400" type="curve" smooth="yes"/>
      <point x="123" y="432"/>
      <point x="143" y="464"/>
      <point x="175" y="470" type="curve"/>
      <point x="278" y="409" type="line" smooth="yes"/>
      <point x="335" y="376"/>
      <point x="340" y="345"/>
      <point x="340" y="316" type="curve" smooth="yes"/>
      <point x="340" y="288"/>
      <point x="318" y="262"/>
      <point x="291" y="262" type="curve" smooth="yes"/>
      <point x="283" y="262"/>
      <point x="275" y="264"/>
      <point x="268" y="269" type="curve"/>
    </contour>
  </outline>
</glyph>
<glyph name="macron" format="2">
  <advance width="370"/>
  <unicode hex="00AF"/>
  <outline>
    <contour>
      <point x="46" y="514" type="line"/>
      <point x="324" y="514" type="line"/>
      <point x="324" y="594" type="line"/>
      <point x="46" y="594" type="line"/>
    </contour>
  </outline>
</glyph>
<glyph name="degree" format="2">
  <advance width="356"/>
  <unicode hex="00B0"/>
  <outline>
    <contour>
      <point x="55" y="525" type="curve" smooth="yes"/>
      <point x="55" y="457"/>
      <point x="110" y="402"/>
      <point x="178" y="402" type="curve" smooth="yes"/>
      <point x="247" y="402"/>
      <point x="301" y="457"/>
      <point x="301" y="525" type="curve" smooth="yes"/>
      <point x="301" y="594"/>
      <point x="247" y="648"/>
      <point x="178" y="648" type="curve" smooth="yes"/>
      <point x="109" y="648"/>
      <point x="55" y="594"/>
    </contour>
    <contour>
      <point x="117" y="525" type="curve" smooth="yes"/>
      <point x="117" y="561"/>
      <point x="142" y="586"/>
      <point x="178" y="586" type="curve" smooth="yes"/>
      <point x="214" y="586"/>
      <point x="239" y="561"/>
      <point x="239" y="525" type="curve" smooth="yes"/>
      <point x="239" y="490"/>
      <point x="214" y="464"/>
      <point x="178" y="464" type="curve" smooth="yes"/>
      <point x="142" y="464"/>
      <point x="117" y="489"/>
    </contour>
  </outline>
</glyph>
<glyph name="acute" format="2">
  <advance width="271"/>
  <unicode hex="00B4"/>
  <outline>
    <contour>
      <point x="58" y="538" type="line"/>
      <point x="109" y="538" type="line"/>
      <point x="213" y="700" type="line"/>
      <point x="123" y="700" type="line"/>
    </contour>
  </outline>
</glyph>
<glyph name="one.superior" format="2">
  <advance width="236"/>
  <unicode hex="00B9"/>
  <outline>
    <contour>
      <point x="33" y="519" type="line"/>
      <point x="70" y="529"/>
      <point x="109" y="550"/>
      <point x="137" y="575" type="curve"/>
      <point x="118" y="607" type="line"/>
      <point x="118" y="354" type="line"/>
      <point x="207" y="354" type="line"/>
      <point x="207" y="680" type="line"/>
      <point x="144" y="680" type="line"/>
      <point x="119" y="649"/>
      <point x="69" y="609"/>
      <point x="33" y="600" type="curve"/>
    </contour>
  </outline>
</glyph>
<glyph name="onequarter" format="2">
  <advance width="757"/>
  <unicode hex="00BC"/>
  <outline>
    <contour>
      <point x="32" y="519" type="line"/>
      <point x="70" y="529"/>
      <point x="110" y="551"/>
      <point x="138" y="576" type="curve"/>
      <point x="119" y="608" type="line"/>
      <point x="119" y="355" type="line"/>
      <point x="209" y="355" type="line"/>
      <point x="209" y="681" type="line"/>
      <point x="145" y="681" type="line"/>
      <point x="120" y="650"/>
      <point x="69" y="609"/>
      <point x="32" y="600" type="curve"/>
    </contour>
    <contour>
      <point x="92" y="0" type="line"/>
      <point x="204" y="0" type="line"/>
      <point x="690" y="681" type="line"/>
      <point x="578" y="681" type="line"/>
    </contour>
    <contour>
      <point x="428" y="57" type="line"/>
      <point x="704" y="57" type="line"/>
      <point x="704" y="127" type="line"/>
      <point x="499" y="127" type="line"/>
      <point x="507" y="106" type="line"/>
      <point x="598" y="237" type="line"/>
      <point x="585" y="240" type="line"/>
      <point x="585" y="0" type="line"/>
      <point x="669" y="0" type="line"/>
      <point x="669" y="326" type="line"/>
      <point x="578" y="326" type="line"/>
      <point x="428" y="121" type="line"/>
    </contour>
  </outline>
</glyph>
<glyph name="questiondown" format="2">
  <advance width="502"/>
  <unicode hex="00BF"/>
  <outline>
    <contour>
      <point x="462" y="-20" type="curve"/>
      <point x="373" y="-20" type="line"/>
      <point x="369" y="-97"/>
      <point x="330" y="-160"/>
      <point x="252" y="-160" type="curve" smooth="yes"/>
      <point x="145" y="-160"/>
      <point x="130" y="-101"/>
      <point x="130" y="-38" type="curve" smooth="yes"/>
      <point x="130" y="61"/>
      <point x="317" y="106"/>
      <point x="317" y="280" type="curve" smooth="yes"/>
      <point x="317" y="320" type="line"/>
      <point x="227" y="320" type="line"/>
      <point x="227" y="280" type="line" smooth="yes"/>
      <point x="227" y="141"/>
      <point x="40" y="125"/>
      <point x="40" y="-49" type="curve" smooth="yes"/>
      <point x="40" y="-170"/>
      <point x="106" y="-250"/>
      <point x="252" y="-250" type="curve" smooth="yes"/>
      <point x="373" y="-250"/>
      <point x="461" y="-160"/>
    </contour>
    <contour>
      <point x="317" y="460" type="line"/>
      <point x="227" y="460" type="line"/>
      <point x="227" y="370" type="line"/>
      <point x="317" y="370" type="line"/>
    </contour>
  </outline>
</glyph>
<glyph name="Thorn" format="2">
  <advance width="436"/>
  <unicode hex="00DE"/>
  <outline>
    <contour>
      <point x="59" y="0" type="line"/>
      <point x="152" y="0" type="line"/>
      <point x="152" y="681" type="line"/>
      <point x="59" y="681" type="line"/>
    </contour>
    <contour>
      <point x="120" y="133" type="line"/>
      <point x="168" y="133" type="line" smooth="yes"/>
      <point x="311" y="133"/>
      <point x="388" y="207"/>
      <point x="388" y="349" type="curve" smooth="yes"/>
      <point x="388" y="492"/>
      <point x="315" y="565"/>
      <point x="172" y="565" type="curve" smooth="yes"/>
      <point x="120" y="565" type="line"/>
      <point x="120" y="470" type="line"/>
      <point x="168" y="470" type="line" smooth="yes"/>
      <point x="235" y="470"/>
      <point x="282" y="424"/>
      <point x="282" y="348" type="curve" smooth="yes"/>
      <point x="282" y="271"/>
      <point x="237" y="227"/>
      <point x="168" y="227" type="curve" smooth="yes"/>
      <point x="120" y="227" type="line"/>
    </contour>
  </outline>
</glyph>
<glyph name="germandbls" format="2">
  <advance width="560"/>
  <unicode hex="00DF"/>
  <outline>
    <contour>
      <point x="66" y="-30" type="line"/>
      <point x="158" y="-30" type="line"/>
      <point x="158" y="480" type="line" smooth="yes"/>
      <point x="158" y="565"/>
      <point x="181" y="624"/>
      <point x="273" y="624" type="curve" smooth="yes"/>
      <point x="352" y="624"/>
      <point x="393" y="576"/>
      <point x="393" y="508" type="curve" smooth="yes"/>
      <point x="393" y="428"/>
      <point x="322" y="402"/>
      <point x="256" y="402" type="curve" smooth="yes"/>
      <point x="241" y="402" type="line"/>
      <point x="241" y="322" type="line"/>
      <point x="257" y="322" type="line" smooth="yes"/>
      <point x="359" y="322"/>
      <point x="428" y="289"/>
      <point x="428" y="192" type="curve" smooth="yes"/>
      <point x="428" y="103"/>
      <point x="389" y="64"/>
      <point x="296" y="64" type="curve" smooth="yes"/>
      <point x="280" y="64"/>
      <point x="231" y="68"/>
      <point x="215" y="74" type="curve"/>
      <point x="215" y="-4" type="line"/>
      <point x="231" y="-8"/>
      <point x="277" y="-12"/>
      <point x="305" y="-12" type="curve" smooth="yes"/>
      <point x="452" y="-12"/>
      <point x="520" y="52"/>
      <point x="520" y="191" type="curve" smooth="yes"/>
      <point x="520" y="259"/>
      <point x="468" y="357"/>
      <point x="379" y="373" type="curve"/>
      <point x="387" y="367" type="line"/>
      <point x="411" y="383"/>
      <point x="485" y="415"/>
      <point x="485" y="518" type="curve" smooth="yes"/>
      <point x="485" y="628"/>
      <point x="404" y="700"/>
      <point x="272" y="700" type="curve" smooth="yes"/>
      <point x="140" y="700"/>
      <point x="66" y="606"/>
      <point x="66" y="492" type="curve" smooth="yes"/>
    </contour>
  </outline>
</glyph>
<glyph name="dcroat" format="2">
  <advance width="491"/>
  <unicode hex="0111"/>
  <outline>
    <contour>
      <point x="125" y="231" type="curve" smooth="yes"/>
      <point x="125" y="332"/>
      <point x="162" y="398"/>
      <point x="248" y="398" type="curve" smooth="yes"/>
      <point x="310" y="398"/>
      <point x="361" y="344"/>
      <point x="361" y="249" type="curve" smooth="yes"/>
      <point x="361" y="209" type="line" smooth="yes"/>
      <point x="361" y="146"/>
      <point x="326" y="64"/>
      <point x="248" y="64" type="curve" smooth="yes"/>
      <point x="150" y="64"/>
      <point x="125" y="163"/>
    </contour>
    <contour>
      <point x="33" y="230" type="curve" smooth="yes"/>
      <point x="33" y="144"/>
      <point x="53" y="-12"/>
      <point x="224" y="-12" type="curve" smooth="yes"/>
      <point x="287" y="-12"/>
      <point x="341" y="37"/>
      <point x="366" y="97" type="curve"/>
      <point x="361" y="97" type="line"/>
      <point x="371" y="0" type="line"/>
      <point x="450" y="0" type="line"/>
      <point x="450" y="700" type="line"/>
      <point x="358" y="700" type="line"/>
      <point x="358" y="381" type="line"/>
      <point x="366" y="382" type="line"/>
      <point x="347" y="438"/>
      <point x="285" y="472"/>
      <point x="223" y="472" type="curve" smooth="yes"/>
      <point x="93" y="472"/>
      <point x="33" y="355"/>
    </contour>
    <contour>
      <point x="250" y="528" type="line"/>
      <point x="490" y="528" type="line"/>
      <point x="490" y="612" type="line"/>
      <point x="250" y="612" type="line"/>
    </contour>
  </outline>
</glyph>
<glyph name="eng" format="2">
  <advance width="442"/>
  <unicode hex="014B"/>
  <outline>
    <component base="n"/>
    <contour>
      <point x="220" y="-200" type="line"/>
      <point x="248" y="-200" type="line" smooth="yes"/>
      <point x="315" y="-200"/>
      <point x="376" y="-143"/>
      <point x="376" y="-62" type="curve" smooth="yes"/>
      <point x="376" y="92" type="line"/>
      <point x="290" y="92" type="line"/>
      <point x="290" y="-27" type="line" smooth="yes"/>
      <point x="290" y="-84"/>
      <point x="268" y="-111"/>
      <point x="220" y="-111" type="curve"/>
    </contour>
  </outline>
</glyph>
<glyph name="longs" format="2">
  <advance width="277"/>
  <unicode hex="017F"/>
  <anchor x="142" y="740" name="top"/>
  <outline>
    <contour>
      <point x="82" y="0" type="line"/>
      <point x="168" y="0" type="line"/>
      <point x="168" y="500" type="line" smooth="yes"/>
      <point x="168" y="598"/>
      <point x="178" y="628"/>
      <point x="221" y="628" type="curve" smooth="yes"/>
      <point x="255" y="628" type="line"/>
      <point x="255" y="700" type="line"/>
      <point x="221" y="700" type="line" smooth="yes"/>
      <point x="101" y="700"/>
      <point x="82" y="642"/>
      <point x="82" y="500" type="curve" smooth="yes"/>
    </contour>
    <contour>
      <point x="26" y="393" type="line"/>
      <point x="121" y="393" type="line"/>
      <point x="121" y="460" type="line"/>
      <point x="26" y="460" type="line"/>
    </contour>
  </outline>
</glyph>
<glyph name="Schwa" format="2">
  <advance width="538"/>
  <unicode hex="018F"/>
  <outline>
    <contour>
      <point x="48" y="340" type="line"/>
      <point x="48" y="119"/>
      <point x="128" y="-12"/>
      <point x="269" y="-12" type="curve" smooth="yes"/>
      <point x="410" y="-12"/>
      <point x="490" y="119"/>
      <point x="490" y="340" type="curve" smooth="yes"/>
      <point x="490" y="561"/>
      <point x="410" y="692"/>
      <point x="269" y="692" type="curve" smooth="yes"/>
      <point x="160" y="692"/>
      <point x="87" y="614"/>
      <point x="60" y="477" type="curve"/>
      <point x="154" y="477" type="line"/>
      <point x="172" y="558"/>
      <point x="209" y="602"/>
      <point x="269" y="602" type="curve" smooth="yes"/>
      <point x="356" y="602"/>
      <point x="396" y="508"/>
      <point x="396" y="340" type="curve" smooth="yes"/>
      <point x="396" y="172"/>
      <point x="356" y="78"/>
      <point x="269" y="78" type="curve" smooth="yes"/>
      <point x="182" y="78"/>
      <point x="142" y="172"/>
      <point x="142" y="340" type="curve"/>
    </contour>
    <contour>
      <point x="86" y="252" type="line"/>
      <point x="446" y="252" type="line"/>
      <point x="446" y="340" type="line"/>
      <point x="86" y="340" type="line"/>
    </contour>
  </outline>
</glyph>
<glyph name="breve" format="2">
  <advance width="410"/>
  <unicode hex="02D8"/>
  <anchor x="205" y="530" name="_top"/>
  <outline>
    <contour>
      <point x="59" y="670" type="line"/>
      <point x="59" y="584"/>
      <point x="119" y="530"/>
      <point x="205" y="530" type="curve" smooth="yes"/>
      <point x="291" y="530"/>
      <point x="351" y="584"/>
      <point x="351" y="670" type="curve"/>
      <point x="266" y="670" type="line"/>
      <point x="266" y="625"/>
      <point x="239" y="596"/>
      <point x="205" y="596" type="curve" smooth="yes"/>
      <point x="171" y="596"/>
      <point x="144" y="625"/>
      <point x="144" y="670" type="curve"/>
    </contour>
  </outline>
  <guideline angle="0" x="0" y="530"/>
</glyph>
<glyph name="ogonek" format="2">
  <advance width="290"/>
  <unicode hex="02DB"/>
  <outline>
    <contour>
      <point x="58" y="-129" type="curve" smooth="yes"/>
      <point x="58" y="-180"/>
      <point x="92" y="-210"/>
      <point x="149" y="-210" type="curve" smooth="yes"/>
      <point x="179" y="-210"/>
      <point x="212" y="-197"/>
      <point x="232" y="-183" type="curve"/>
      <point x="211" y="-135" type="line"/>
      <point x="200" y="-143"/>
      <point x="186" y="-148"/>
      <point x="172" y="-148" type="curve" smooth="yes"/>
      <point x="144" y="-148"/>
      <point x="129" y="-134"/>
      <point x="129" y="-109" type="curve" smooth="yes"/>
      <point x="129" y="-71"/>
      <point x="145" y="-40"/>
      <point x="187" y="0" type="curve"/>
      <point x="121" y="0" type="line"/>
      <point x="79" y="-40"/>
      <point x="58" y="-81"/>
    </contour>
  </outline>
</glyph>
<glyph name="gravecomb" format="2">
  <unicode hex="0300"/>
  <anchor x="-202" y="530" name="_top"/>
  <outline>
    <contour>
      <point x="-329" y="692" type="line"/>
      <point x="-225" y="530" type="line"/>
      <point x="-175" y="530" type="line"/>
      <point x="-240" y="692" type="line"/>
    </contour>
  </outline>
  <guideline angle="285.524" x="-230" y="720"/>
  <guideline angle="112.891" x="-234" y="540"/>
  <guideline angle="0" x="0" y="702"/>
  <guideline angle="0" x="0" y="530"/>
</glyph>
<glyph name="caroncomb" format="2">
  <unicode hex="030C"/>
  <anchor x="-220" y="530" name="_top"/>
  <outline>
    <contour>
      <point x="-260" y="530" type="line"/>
      <point x="-180" y="530" type="line"/>
      <point x="-80" y="690" type="line"/>
      <point x="-144" y="690" type="line"/>
      <point x="-240" y="583" type="line"/>
      <point x="-200" y="583" type="line"/>
      <point x="-296" y="690" type="line"/>
      <point x="-360" y="690" type="line"/>
    </contour>
  </outline>
  <guideline angle="0" x="0" y="530"/>
  <guideline angle="90" x="-220" y="0"/>
</glyph>
<glyph name="uni030F" format="2">
  <unicode hex="030F"/>
  <anchor x="-205" y="530" name="_top"/>
  <outline>
    <contour>
      <point x="-398" y="692" type="line"/>
      <point x="-294" y="530" type="line"/>
      <point x="-244" y="530" type="line"/>
      <point x="-309" y="692" type="line"/>
    </contour>
    <contour>
      <point x="-257" y="692" type="line"/>
      <point x="-153" y="530" type="line"/>
      <point x="-103" y="530" type="line"/>
      <point x="-168" y="692" type="line"/>
    </contour>
  </outline>
</glyph>
<glyph name="uni040F" format="2">
  <advance width="590"/>
  <unicode hex="040F"/>
  <outline>
    <contour>
      <point x="50" y="0" type="line"/>
      <point x="540" y="0" type="line"/>
      <point x="540" y="680" type="line"/>
      <point x="439" y="680" type="line"/>
      <point x="439" y="90" type="line"/>
      <point x="151" y="90" type="line"/>
      <point x="151" y="680" type="line"/>
      <point x="50" y="680" type="line"/>
    </contour>
    <contour>
      <point x="245" y="-200" type="line"/>
      <point x="345" y="-200" type="line"/>
      <point x="345" y="15" type="line"/>
      <point x="245" y="15" type="line"/>
    </contour>
  </outline>
</glyph>
<glyph name="uni0411" format="2">
  <advance width="358"/>
  <unicode hex="0411"/>
  <outline>
    <contour>
      <point x="58" y="0" type="line"/>
      <point x="170" y="0" type="line" smooth="yes"/>
      <point x="287" y="0"/>
      <point x="330" y="80"/>
      <point x="330" y="206" type="curve" smooth="yes"/>
      <point x="330" y="341"/>
      <point x="292" y="404"/>
      <point x="170" y="404" type="curve" smooth="yes"/>
      <point x="58" y="404" type="line"/>
      <point x="58" y="315" type="line"/>
      <point x="166" y="315" type="line" smooth="yes"/>
      <point x="228" y="315"/>
      <point x="242" y="270"/>
      <point x="242" y="206" type="curve" smooth="yes"/>
      <point x="242" y="136"/>
      <point x="230" y="90"/>
      <point x="166" y="90" type="curve" smooth="yes"/>
      <point x="58" y="90" type="line"/>
    </contour>
    <contour>
      <point x="29" y="0" type="line"/>
      <point x="116" y="0" type="line"/>
      <point x="116" y="680" type="line"/>
      <point x="29" y="680" type="line"/>
    </contour>
    <contour>
      <point x="58" y="590" type="line"/>
      <point x="290" y="590" type="line"/>
      <point x="290" y="680" type="line"/>
      <point x="58" y="680" type="line"/>
    </contour>
  </outline>
  <guideline angle="90" x="74" y="0"/>
</glyph>
<glyph name="uni0413" format="2">
  <advance width="386"/>
  <unicode hex="0413"/>
  <outline>
    <contour>
      <point x="38" y="0" type="line"/>
      <point x="131" y="0" type="line"/>
      <point x="131" y="680" type="line"/>
      <point x="38" y="680" type="line"/>
    </contour>
    <contour>
      <point x="83" y="590" type="line"/>
      <point x="363" y="590" type="line"/>
      <point x="363" y="680" type="line"/>
      <point x="83" y="680" type="line"/>
    </contour>
  </outline>
</glyph>
<glyph name="uni0414" format="2">
  <advance width="543"/>
  <unicode hex="0414"/>
  <outline>
    <contour>
      <point x="23" y="-150" type="line"/>
      <point x="114" y="-150" type="line"/>
      <point x="114" y="0" type="line"/>
      <point x="433" y="0" type="line"/>
      <point x="433" y="-150" type="line"/>
      <point x="524" y="-150" type="line"/>
      <point x="524" y="89" type="line"/>
      <point x="23" y="89" type="line"/>
    </contour>
    <contour>
      <point x="33" y="-10" type="line"/>
      <point x="120" y="-10"/>
      <point x="198" y="68"/>
      <point x="213" y="370" type="curve" smooth="yes"/>
      <point x="228" y="680" type="line"/>
      <point x="136" y="680" type="line"/>
      <point x="121" y="370" type="line" smooth="yes"/>
      <point x="113" y="206"/>
      <point x="89" y="80"/>
      <point x="33" y="80" type="curve"/>
    </contour>
    <contour>
      <point x="136" y="591" type="line"/>
      <point x="447" y="591" type="line"/>
      <point x="447" y="680" type="line"/>
      <point x="136" y="680" type="line"/>
    </contour>
    <contour>
      <point x="375" y="0" type="line"/>
      <point x="468" y="0" type="line"/>
      <point x="468" y="680" type="line"/>
      <point x="375" y="680" type="line"/>
    </contour>
  </outline>
</glyph>
<glyph name="uni0417" format="2">
  <advance width="453"/>
  <unicode hex="0417"/>
  <outline>
    <contour>
      <point x="38" y="187" type="line"/>
      <point x="38" y="63"/>
      <point x="134" y="-2"/>
      <point x="223" y="-2" type="curve" smooth="yes"/>
      <point x="332" y="-2"/>
      <point x="416" y="68"/>
      <point x="416" y="209" type="curve" smooth="yes"/>
      <point x="416" y="310"/>
      <point x="356" y="381"/>
      <point x="263" y="391" type="curve"/>
      <point x="263" y="357" type="line"/>
      <point x="344" y="384"/>
      <point x="379" y="451"/>
      <point x="379" y="512" type="curve" smooth="yes"/>
      <point x="379" y="630"/>
      <point x="317" y="690"/>
      <point x="205" y="690" type="curve" smooth="yes"/>
      <point x="119" y="690"/>
      <point x="38" y="622"/>
      <point x="38" y="508" type="curve"/>
      <point x="129" y="508" type="line"/>
      <point x="129" y="573"/>
      <point x="169" y="600"/>
      <point x="204" y="600" type="curve" smooth="yes"/>
      <point x="247" y="600"/>
      <point x="285" y="568"/>
      <point x="285" y="509" type="curve" smooth="yes"/>
      <point x="285" y="425"/>
      <point x="261" y="409"/>
      <point x="207" y="409" type="curve" smooth="yes"/>
      <point x="159" y="409" type="line"/>
      <point x="159" y="322" type="line"/>
      <point x="210" y="322" type="line" smooth="yes"/>
      <point x="284" y="322"/>
      <point x="322" y="282"/>
      <point x="322" y="206" type="curve" smooth="yes"/>
      <point x="322" y="121"/>
      <point x="272" y="88"/>
      <point x="222" y="88" type="curve" smooth="yes"/>
      <point x="167" y="88"/>
      <point x="129" y="141"/>
      <point x="129" y="187" type="curve"/>
    </contour>
  </outline>
</glyph>
<glyph name="uni041F" format="2">
  <advance width="461"/>
  <unicode hex="041F"/>
  <outline>
    <contour>
      <point x="38" y="0" type="line"/>
      <point x="131" y="0" type="line"/>
      <point x="131" y="590" type="line"/>
      <point x="329" y="590" type="line"/>
      <point x="329" y="0" type="line"/>
      <point x="423" y="0" type="line"/>
      <point x="423" y="680" type="line"/>
      <point x="38" y="680" type="line"/>
    </contour>
  </outline>
</glyph>
<glyph name="uni0426" format="2">
  <advance width="491"/>
  <unicode hex="0426"/>
  <outline>
    <contour>
      <point x="38" y="0" type="line"/>
      <point x="368" y="0" type="line"/>
      <point x="368" y="81" type="line"/>
      <point x="38" y="81" type="line"/>
    </contour>
    <contour>
      <point x="350" y="0" type="line"/>
      <point x="384" y="0" type="line"/>
      <point x="384" y="-140" type="line"/>
      <point x="462" y="-140" type="line"/>
      <point x="462" y="81" type="line"/>
      <point x="350" y="81" type="line"/>
    </contour>
    <contour>
      <point x="38" y="0" type="line"/>
      <point x="131" y="0" type="line"/>
      <point x="131" y="680" type="line"/>
      <point x="38" y="680" type="line"/>
    </contour>
    <contour>
      <point x="312" y="0" type="line"/>
      <point x="406" y="0" type="line"/>
      <point x="406" y="680" type="line"/>
      <point x="312" y="680" type="line"/>
    </contour>
  </outline>
</glyph>
<glyph name="uni0427" format="2">
  <advance width="405"/>
  <unicode hex="0427"/>
  <outline>
    <contour>
      <point x="38" y="494" type="line" smooth="yes"/>
      <point x="38" y="372"/>
      <point x="89" y="307"/>
      <point x="170" y="307" type="curve" smooth="yes"/>
      <point x="307" y="307" type="line"/>
      <point x="307" y="397" type="line"/>
      <point x="194" y="397" type="line" smooth="yes"/>
      <point x="143" y="397"/>
      <point x="129" y="422"/>
      <point x="129" y="500" type="curve" smooth="yes"/>
      <point x="129" y="680" type="line"/>
      <point x="38" y="680" type="line"/>
    </contour>
    <contour>
      <point x="274" y="0" type="line"/>
      <point x="367" y="0" type="line"/>
      <point x="367" y="680" type="line"/>
      <point x="274" y="680" type="line"/>
    </contour>
  </outline>
</glyph>
<glyph name="uni0428" format="2">
  <advance width="653"/>
  <unicode hex="0428"/>
  <outline>
    <contour>
      <point x="71" y="0" type="line"/>
      <point x="587" y="0" type="line"/>
      <point x="587" y="81" type="line"/>
      <point x="71" y="81" type="line"/>
    </contour>
    <contour>
      <point x="38" y="0" type="line"/>
      <point x="131" y="0" type="line"/>
      <point x="131" y="680" type="line"/>
      <point x="38" y="680" type="line"/>
    </contour>
    <contour>
      <point x="280" y="0" type="line"/>
      <point x="373" y="0" type="line"/>
      <point x="373" y="680" type="line"/>
      <point x="280" y="680" type="line"/>
    </contour>
    <contour>
      <point x="522" y="0" type="line"/>
      <point x="615" y="0" type="line"/>
      <point x="615" y="680" type="line"/>
      <point x="522" y="680" type="line"/>
    </contour>
  </outline>
</glyph>
<glyph name="uni0429" format="2">
  <advance width="705"/>
  <unicode hex="0429"/>
  <outline>
    <contour>
      <point x="71" y="0" type="line"/>
      <point x="587" y="0" type="line"/>
      <point x="587" y="81" type="line"/>
      <point x="71" y="81" type="line"/>
    </contour>
    <contour>
      <point x="568" y="0" type="line"/>
      <point x="602" y="0" type="line"/>
      <point x="602" y="-140" type="line"/>
      <point x="680" y="-140" type="line"/>
      <point x="680" y="81" type="line"/>
      <point x="568" y="81" type="line"/>
    </contour>
    <contour>
      <point x="38" y="0" type="line"/>
      <point x="131" y="0" type="line"/>
      <point x="131" y="680" type="line"/>
      <point x="38" y="680" type="line"/>
    </contour>
    <contour>
      <point x="279" y="0" type="line"/>
      <point x="373" y="0" type="line"/>
      <point x="373" y="680" type="line"/>
      <point x="279" y="680" type="line"/>
    </contour>
    <contour>
      <point x="521" y="0" type="line"/>
      <point x="615" y="0" type="line"/>
      <point x="615" y="680" type="line"/>
      <point x="521" y="680" type="line"/>
    </contour>
  </outline>
</glyph>
<glyph name="uni042B" format="2">
  <advance width="630"/>
  <unicode hex="042B"/>
  <outline>
    <contour>
      <point x="59" y="0" type="line"/>
      <point x="235" y="0" type="line" smooth="yes"/>
      <point x="382" y="0"/>
      <point x="437" y="80"/>
      <point x="437" y="206" type="curve" smooth="yes"/>
      <point x="437" y="341"/>
      <point x="389" y="404"/>
      <point x="235" y="404" type="curve" smooth="yes"/>
      <point x="115" y="404" type="line"/>
      <point x="115" y="315" type="line"/>
      <point x="230" y="315" type="line" smooth="yes"/>
      <point x="323" y="315"/>
      <point x="343" y="270"/>
      <point x="343" y="206" type="curve" smooth="yes"/>
      <point x="343" y="136"/>
      <point x="325" y="90"/>
      <point x="230" y="90" type="curve" smooth="yes"/>
      <point x="59" y="90" type="line"/>
    </contour>
    <contour>
      <point x="59" y="0" type="line"/>
      <point x="152" y="0" type="line"/>
      <point x="152" y="680" type="line"/>
      <point x="59" y="680" type="line"/>
    </contour>
    <contour>
      <point x="477" y="0" type="line"/>
      <point x="571" y="0" type="line"/>
      <point x="571" y="680" type="line"/>
      <point x="477" y="680" type="line"/>
    </contour>
  </outline>
</glyph>
<glyph name="uni042D" format="2">
  <advance width="461"/>
  <unicode hex="042D"/>
  <outline>
    <contour>
      <point x="34" y="185" type="line"/>
      <point x="56" y="84"/>
      <point x="110" y="-12"/>
      <point x="223" y="-12" type="curve" smooth="yes"/>
      <point x="377" y="-12"/>
      <point x="427" y="195"/>
      <point x="427" y="356" type="curve" smooth="yes"/>
      <point x="427" y="532"/>
      <point x="380" y="692"/>
      <point x="223" y="692" type="curve" smooth="yes"/>
      <point x="128" y="692"/>
      <point x="56" y="626"/>
      <point x="34" y="510" type="curve"/>
      <point x="127" y="510" type="line"/>
      <point x="148" y="576"/>
      <point x="179" y="603"/>
      <point x="223" y="603" type="curve" smooth="yes"/>
      <point x="323" y="603"/>
      <point x="335" y="476"/>
      <point x="335" y="354" type="curve" smooth="yes"/>
      <point x="335" y="246"/>
      <point x="311" y="77"/>
      <point x="223" y="77" type="curve" smooth="yes"/>
      <point x="168" y="77"/>
      <point x="141" y="138"/>
      <point x="127" y="185" type="curve"/>
    </contour>
    <contour>
      <point x="206" y="313" type="line"/>
      <point x="386" y="313" type="line"/>
      <point x="386" y="401" type="line"/>
      <point x="206" y="401" type="line"/>
    </contour>
  </outline>
</glyph>
<glyph name="uni042E" format="2">
  <advance width="703"/>
  <unicode hex="042E"/>
  <outline>
    <contour>
      <point x="127" y="302" type="line"/>
      <point x="241" y="302" type="line"/>
      <point x="241" y="392" type="line"/>
      <point x="127" y="392" type="line"/>
    </contour>
    <contour>
      <point x="209" y="341" type="curve" smooth="yes"/>
      <point x="209" y="153"/>
      <point x="264" y="-12"/>
      <point x="431" y="-12" type="curve" smooth="yes"/>
      <point x="578" y="-12"/>
      <point x="655" y="129"/>
      <point x="655" y="340" type="curve" smooth="yes"/>
      <point x="655" y="548"/>
      <point x="581" y="692"/>
      <point x="431" y="692" type="curve" smooth="yes"/>
      <point x="270" y="692"/>
      <point x="209" y="521"/>
    </contour>
    <contour>
      <point x="303" y="340" type="curve" smooth="yes"/>
      <point x="303" y="488"/>
      <point x="338" y="602"/>
      <point x="431" y="602" type="curve" smooth="yes"/>
      <point x="530" y="602"/>
      <point x="560" y="488"/>
      <point x="560" y="340" type="curve" smooth="yes"/>
      <point x="560" y="227"/>
      <point x="530" y="78"/>
      <point x="431" y="78" type="curve" smooth="yes"/>
      <point x="337" y="78"/>
      <point x="303" y="194"/>
    </contour>
    <contour>
      <point x="59" y="0" type="line"/>
      <point x="153" y="0" type="line"/>
      <point x="153" y="680" type="line"/>
      <point x="59" y="680" type="line"/>
    </contour>
  </outline>
</glyph>
<glyph name="uni042F" format="2">
  <advance width="478"/>
  <unicode hex="042F"/>
  <outline>
    <contour>
      <point x="38" y="474" type="curve" smooth="yes"/>
      <point x="38" y="385"/>
      <point x="93" y="276"/>
      <point x="206" y="276" type="curve" smooth="yes"/>
      <point x="359" y="276" type="line"/>
      <point x="359" y="366" type="line"/>
      <point x="230" y="366" type="line" smooth="yes"/>
      <point x="173" y="366"/>
      <point x="131" y="398"/>
      <point x="131" y="474" type="curve" smooth="yes"/>
      <point x="131" y="559"/>
      <point x="194" y="590"/>
      <point x="254" y="590" type="curve" smooth="yes"/>
      <point x="416" y="590" type="line"/>
      <point x="416" y="680" type="line"/>
      <point x="230" y="680" type="line" smooth="yes"/>
      <point x="120" y="680"/>
      <point x="38" y="612"/>
    </contour>
    <contour>
      <point x="38" y="0" type="line"/>
      <point x="146" y="0" type="line"/>
      <point x="257" y="292" type="line"/>
      <point x="157" y="292" type="line"/>
    </contour>
    <contour>
      <point x="325" y="0" type="line"/>
      <point x="419" y="0" type="line"/>
      <point x="419" y="680" type="line"/>
      <point x="325" y="680" type="line"/>
    </contour>
  </outline>
</glyph>
<glyph name="uni0431" format="2">
  <advance width="426"/>
  <unicode hex="0431"/>
  <outline>
    <contour>
      <point x="128" y="218" type="curve" smooth="yes"/>
      <point x="128" y="328"/>
      <point x="152" y="389"/>
      <point x="211" y="389" type="curve" smooth="yes"/>
      <point x="273" y="389"/>
      <point x="297" y="313"/>
      <point x="297" y="237" type="curve" smooth="yes"/>
      <point x="297" y="127"/>
      <point x="267" y="66"/>
      <point x="208" y="66" type="curve" smooth="yes"/>
      <point x="154" y="66"/>
      <point x="128" y="126"/>
    </contour>
    <contour>
      <point x="40" y="244" type="line" smooth="yes"/>
      <point x="40" y="56"/>
      <point x="125" y="-12"/>
      <point x="215" y="-12" type="curve" smooth="yes"/>
      <point x="319" y="-12"/>
      <point x="386" y="107"/>
      <point x="386" y="240" type="curve" smooth="yes"/>
      <point x="386" y="374"/>
      <point x="326" y="467"/>
      <point x="226" y="467" type="curve" smooth="yes"/>
      <point x="158" y="467"/>
      <point x="113" y="420"/>
      <point x="90" y="353" type="curve"/>
      <point x="109" y="353" type="line"/>
      <point x="114" y="387"/>
      <point x="116" y="409"/>
      <point x="116" y="419" type="curve" smooth="yes"/>
      <point x="116" y="521"/>
      <point x="173" y="546"/>
      <point x="237" y="573" type="curve" smooth="yes"/>
      <point x="274" y="588"/>
      <point x="314" y="610"/>
      <point x="339" y="632" type="curve"/>
      <point x="339" y="700" type="line"/>
      <point x="326" y="700" type="line"/>
      <point x="289" y="678"/>
      <point x="256" y="663"/>
      <point x="225" y="651" type="curve" smooth="yes"/>
      <point x="117" y="608"/>
      <point x="40" y="568"/>
      <point x="40" y="389" type="curve" smooth="yes"/>
    </contour>
  </outline>
</glyph>
<glyph name="uni0432" format="2">
  <advance width="409"/>
  <unicode hex="0432"/>
  <outline>
    <contour>
      <point x="66" y="0" type="line"/>
      <point x="151" y="0" type="line"/>
      <point x="151" y="460" type="line"/>
      <point x="66" y="460" type="line"/>
    </contour>
    <contour>
      <point x="103" y="0" type="line"/>
      <point x="237" y="0" type="line" smooth="yes"/>
      <point x="324" y="0"/>
      <point x="369" y="66"/>
      <point x="369" y="139" type="curve" smooth="yes"/>
      <point x="369" y="256"/>
      <point x="290" y="271"/>
      <point x="218" y="271" type="curve" smooth="yes"/>
      <point x="103" y="271" type="line"/>
      <point x="103" y="201" type="line"/>
      <point x="231" y="201" type="line" smooth="yes"/>
      <point x="264" y="201"/>
      <point x="283" y="171"/>
      <point x="283" y="138" type="curve" smooth="yes"/>
      <point x="283" y="96"/>
      <point x="266" y="70"/>
      <point x="231" y="70" type="curve" smooth="yes"/>
      <point x="103" y="70" type="line"/>
    </contour>
    <contour>
      <point x="103" y="390" type="line"/>
      <point x="219" y="390" type="line" smooth="yes"/>
      <point x="249" y="390"/>
      <point x="270" y="363"/>
      <point x="270" y="329" type="curve" smooth="yes"/>
      <point x="270" y="281"/>
      <point x="247" y="271"/>
      <point x="219" y="271" type="curve" smooth="yes"/>
      <point x="195" y="271" type="line"/>
      <point x="195" y="238" type="line"/>
      <point x="299" y="238" type="line"/>
      <point x="338" y="268"/>
      <point x="354" y="303"/>
      <point x="354" y="336" type="curve" smooth="yes"/>
      <point x="354" y="408"/>
      <point x="315" y="460"/>
      <point x="223" y="460" type="curve" smooth="yes"/>
      <point x="103" y="460" type="line"/>
    </contour>
  </outline>
</glyph>
<glyph name="uni0433" format="2">
  <advance width="349"/>
  <unicode hex="0433"/>
  <outline>
    <contour>
      <point x="66" y="0" type="line"/>
      <point x="152" y="0" type="line"/>
      <point x="152" y="421" type="line"/>
      <point x="120" y="381" type="line"/>
      <point x="321" y="381" type="line"/>
      <point x="321" y="460" type="line"/>
      <point x="66" y="460" type="line"/>
    </contour>
  </outline>
</glyph>
<glyph name="uni0434" format="2">
  <advance width="417"/>
  <unicode hex="0434"/>
  <outline>
    <contour>
      <point x="21" y="-140" type="line"/>
      <point x="95" y="-140" type="line"/>
      <point x="103" y="0" type="line"/>
      <point x="322" y="0" type="line"/>
      <point x="329" y="-140" type="line"/>
      <point x="403" y="-140" type="line"/>
      <point x="403" y="79" type="line"/>
      <point x="21" y="79" type="line"/>
    </contour>
    <contour>
      <point x="28" y="3" type="line"/>
      <point x="59" y="3" type="line" smooth="yes"/>
      <point x="109" y="3"/>
      <point x="155" y="39"/>
      <point x="169" y="310" type="curve" smooth="yes"/>
      <point x="176" y="460" type="line"/>
      <point x="93" y="460" type="line"/>
      <point x="85" y="290" type="line" smooth="yes"/>
      <point x="76" y="92"/>
      <point x="61" y="79"/>
      <point x="28" y="79" type="curve"/>
    </contour>
    <contour>
      <point x="113" y="381" type="line"/>
      <point x="361" y="381" type="line"/>
      <point x="361" y="460" type="line"/>
      <point x="113" y="460" type="line"/>
    </contour>
    <contour>
      <point x="279" y="0" type="line"/>
      <point x="364" y="0" type="line"/>
      <point x="364" y="460" type="line"/>
      <point x="279" y="460" type="line"/>
    </contour>
  </outline>
</glyph>
<glyph name="uni0437" format="2">
  <advance width="397"/>
  <unicode hex="0437"/>
  <outline>
    <contour>
      <point x="40" y="151" type="line"/>
      <point x="51" y="36"/>
      <point x="125" y="-11"/>
      <point x="200" y="-11" type="curve" smooth="yes"/>
      <point x="291" y="-11"/>
      <point x="357" y="51"/>
      <point x="357" y="140" type="curve" smooth="yes"/>
      <point x="357" y="192"/>
      <point x="332" y="236"/>
      <point x="275" y="259" type="curve"/>
      <point x="273" y="239" type="line"/>
      <point x="328" y="264"/>
      <point x="348" y="296"/>
      <point x="348" y="338" type="curve" smooth="yes"/>
      <point x="348" y="417"/>
      <point x="285" y="471"/>
      <point x="200" y="471" type="curve" smooth="yes"/>
      <point x="118" y="471"/>
      <point x="49" y="408"/>
      <point x="40" y="319" type="curve"/>
      <point x="131" y="319" type="line"/>
      <point x="137" y="361"/>
      <point x="166" y="386"/>
      <point x="199" y="386" type="curve" smooth="yes"/>
      <point x="240" y="386"/>
      <point x="263" y="365"/>
      <point x="263" y="328" type="curve" smooth="yes"/>
      <point x="263" y="300"/>
      <point x="251" y="276"/>
      <point x="214" y="276" type="curve" smooth="yes"/>
      <point x="158" y="276" type="line"/>
      <point x="158" y="207" type="line"/>
      <point x="217" y="207" type="line" smooth="yes"/>
      <point x="257" y="207"/>
      <point x="273" y="186"/>
      <point x="273" y="140" type="curve" smooth="yes"/>
      <point x="273" y="87"/>
      <point x="231" y="74"/>
      <point x="201" y="74" type="curve" smooth="yes"/>
      <point x="168" y="74"/>
      <point x="133" y="93"/>
      <point x="128" y="151" type="curve"/>
    </contour>
  </outline>
</glyph>
<glyph name="uni0438" format="2">
  <advance width="449"/>
  <unicode hex="0438"/>
  <anchor x="224" y="530" name="top"/>
  <outline>
    <contour>
      <point x="66" y="0" type="line"/>
      <point x="150" y="0" type="line"/>
      <point x="283" y="266" type="line"/>
      <point x="288" y="277"/>
      <point x="294" y="290"/>
      <point x="298" y="300" type="curve"/>
      <point x="293" y="298" type="line"/>
      <point x="303" y="298" type="line"/>
      <point x="299" y="300" type="line"/>
      <point x="298" y="290"/>
      <point x="298" y="277"/>
      <point x="298" y="266" type="curve" smooth="yes"/>
      <point x="298" y="0" type="line"/>
      <point x="383" y="0" type="line"/>
      <point x="383" y="460" type="line"/>
      <point x="299" y="460" type="line"/>
      <point x="166" y="194" type="line"/>
      <point x="161" y="183"/>
      <point x="156" y="172"/>
      <point x="151" y="160" type="curve"/>
      <point x="156" y="162" type="line"/>
      <point x="146" y="162" type="line"/>
      <point x="150" y="160" type="line"/>
      <point x="151" y="171"/>
      <point x="151" y="183"/>
      <point x="151" y="194" type="curve" smooth="yes"/>
      <point x="151" y="460" type="line"/>
      <point x="66" y="460" type="line"/>
    </contour>
  </outline>
</glyph>
<glyph name="uni043A" format="2">
  <advance width="384"/>
  <unicode hex="043A"/>
  <outline>
    <contour>
      <point x="126" y="96" type="line"/>
      <point x="348" y="460" type="line"/>
      <point x="249" y="460" type="line"/>
      <point x="126" y="252" type="line"/>
    </contour>
    <contour>
      <point x="153" y="227" type="line"/>
      <point x="266" y="0" type="line"/>
      <point x="365" y="0" type="line"/>
      <point x="208" y="318" type="line"/>
    </contour>
    <contour>
      <point x="66" y="0" type="line"/>
      <point x="151" y="0" type="line"/>
      <point x="151" y="460" type="line"/>
      <point x="66" y="460" type="line"/>
    </contour>
  </outline>
  <guideline angle="59.6324" x="194" y="300"/>
  <guideline angle="295.946" x="209" y="279"/>
  <guideline angle="116.22" x="269" y="0"/>
</glyph>
<glyph name="uni043B" format="2">
  <advance width="415"/>
  <unicode hex="043B"/>
  <outline>
    <contour>
      <point x="14" y="-9" type="line"/>
      <point x="46" y="-9" type="line" smooth="yes"/>
      <point x="114" y="-9"/>
      <point x="142" y="44"/>
      <point x="156" y="310" type="curve" smooth="yes"/>
      <point x="163" y="460" type="line"/>
      <point x="79" y="460" type="line"/>
      <point x="71" y="290" type="line" smooth="yes"/>
      <point x="63" y="93"/>
      <point x="47" y="67"/>
      <point x="14" y="67" type="curve"/>
    </contour>
    <contour>
      <point x="101" y="381" type="line"/>
      <point x="343" y="381" type="line"/>
      <point x="343" y="460" type="line"/>
      <point x="101" y="460" type="line"/>
    </contour>
    <contour>
      <point x="265" y="0" type="line"/>
      <point x="349" y="0" type="line"/>
      <point x="349" y="460" type="line"/>
      <point x="265" y="460" type="line"/>
    </contour>
  </outline>
</glyph>
<glyph name="uni043D" format="2">
  <advance width="439"/>
  <unicode hex="043D"/>
  <outline>
    <contour>
      <point x="66" y="0" type="line"/>
      <point x="151" y="0" type="line"/>
      <point x="151" y="460" type="line"/>
      <point x="66" y="460" type="line"/>
    </contour>
    <contour>
      <point x="99" y="200" type="line"/>
      <point x="335" y="200" type="line"/>
      <point x="335" y="278" type="line"/>
      <point x="99" y="278" type="line"/>
    </contour>
    <contour>
      <point x="288" y="0" type="line"/>
      <point x="373" y="0" type="line"/>
      <point x="373" y="460" type="line"/>
      <point x="288" y="460" type="line"/>
    </contour>
  </outline>
</glyph>
<glyph name="uni043F" format="2">
  <advance width="423"/>
  <unicode hex="043F"/>
  <outline>
    <contour>
      <point x="96" y="381" type="line"/>
      <point x="320" y="381" type="line"/>
      <point x="320" y="460" type="line"/>
      <point x="96" y="460" type="line"/>
    </contour>
    <contour>
      <point x="66" y="0" type="line"/>
      <point x="151" y="0" type="line"/>
      <point x="151" y="460" type="line"/>
      <point x="66" y="460" type="line"/>
    </contour>
    <contour>
      <point x="273" y="0" type="line"/>
      <point x="357" y="0" type="line"/>
      <point x="357" y="460" type="line"/>
      <point x="273" y="460" type="line"/>
    </contour>
  </outline>
</glyph>
<glyph name="uni0444" format="2">
  <advance width="515"/>
  <unicode hex="0444"/>
  <outline>
    <contour>
      <point x="215" y="-200" type="line"/>
      <point x="300" y="-200" type="line"/>
      <point x="300" y="700" type="line"/>
      <point x="215" y="700" type="line"/>
    </contour>
    <contour>
      <point x="265" y="-12" type="line"/>
      <point x="281" y="-12" type="line" smooth="yes"/>
      <point x="378" y="-12"/>
      <point x="475" y="74"/>
      <point x="475" y="230" type="curve" smooth="yes"/>
      <point x="475" y="386"/>
      <point x="378" y="472"/>
      <point x="281" y="472" type="curve" smooth="yes"/>
      <point x="265" y="472" type="line"/>
      <point x="265" y="391" type="line"/>
      <point x="281" y="391" type="line" smooth="yes"/>
      <point x="345" y="391"/>
      <point x="389" y="333"/>
      <point x="389" y="230" type="curve" smooth="yes"/>
      <point x="389" y="123"/>
      <point x="345" y="69"/>
      <point x="281" y="69" type="curve" smooth="yes"/>
      <point x="265" y="69" type="line"/>
    </contour>
    <contour>
      <point x="40" y="230" type="curve" smooth="yes"/>
      <point x="40" y="74"/>
      <point x="137" y="-12"/>
      <point x="234" y="-12" type="curve" smooth="yes"/>
      <point x="250" y="-12" type="line"/>
      <point x="250" y="69" type="line"/>
      <point x="234" y="69" type="line" smooth="yes"/>
      <point x="170" y="69"/>
      <point x="125" y="123"/>
      <point x="125" y="230" type="curve" smooth="yes"/>
      <point x="125" y="333"/>
      <point x="170" y="391"/>
      <point x="234" y="391" type="curve" smooth="yes"/>
      <point x="250" y="391" type="line"/>
      <point x="250" y="472" type="line"/>
      <point x="234" y="472" type="line" smooth="yes"/>
      <point x="137" y="472"/>
      <point x="40" y="386"/>
    </contour>
  </outline>
</glyph>
<glyph name="uni0446" format="2">
  <advance width="415"/>
  <unicode hex="0446"/>
  <outline>
    <contour>
      <point x="74" y="0" type="line"/>
      <point x="316" y="0" type="line"/>
      <point x="316" y="79" type="line"/>
      <point x="74" y="79" type="line"/>
    </contour>
    <contour>
      <point x="305" y="0" type="line"/>
      <point x="336" y="0" type="line"/>
      <point x="344" y="-140" type="line"/>
      <point x="413" y="-140" type="line"/>
      <point x="413" y="79" type="line"/>
      <point x="305" y="79" type="line"/>
    </contour>
    <contour>
      <point x="66" y="0" type="line"/>
      <point x="151" y="0" type="line"/>
      <point x="151" y="460" type="line"/>
      <point x="66" y="460" type="line"/>
    </contour>
    <contour>
      <point x="274" y="0" type="line"/>
      <point x="359" y="0" type="line"/>
      <point x="359" y="460" type="line"/>
      <point x="274" y="460" type="line"/>
    </contour>
  </outline>
</glyph>
<glyph name="uni0448" format="2">
  <advance width="617"/>
  <unicode hex="0448"/>
  <outline>
    <contour>
      <point x="67" y="0" type="line"/>
      <point x="152" y="0" type="line"/>
      <point x="152" y="460" type="line"/>
      <point x="67" y="460" type="line"/>
    </contour>
    <contour>
      <point x="66" y="0" type="line"/>
      <point x="543" y="0" type="line"/>
      <point x="543" y="79" type="line"/>
      <point x="66" y="79" type="line"/>
    </contour>
    <contour>
      <point x="267" y="0" type="line"/>
      <point x="351" y="0" type="line"/>
      <point x="351" y="460" type="line"/>
      <point x="267" y="460" type="line"/>
    </contour>
    <contour>
      <point x="466" y="0" type="line"/>
      <point x="551" y="0" type="line"/>
      <point x="551" y="460" type="line"/>
      <point x="466" y="460" type="line"/>
    </contour>
  </outline>
</glyph>
<glyph name="uni0449" format="2">
  <advance width="681"/>
  <unicode hex="0449"/>
  <outline>
    <contour>
      <point x="66" y="0" type="line"/>
      <point x="544" y="0" type="line"/>
      <point x="544" y="79" type="line"/>
      <point x="66" y="79" type="line"/>
    </contour>
    <contour>
      <point x="507" y="0" type="line"/>
      <point x="539" y="0" type="line"/>
      <point x="546" y="-140" type="line"/>
      <point x="615" y="-140" type="line"/>
      <point x="615" y="79" type="line"/>
      <point x="507" y="79" type="line"/>
    </contour>
    <contour>
      <point x="66" y="0" type="line"/>
      <point x="151" y="0" type="line"/>
      <point x="151" y="460" type="line"/>
      <point x="66" y="460" type="line"/>
    </contour>
    <contour>
      <point x="267" y="0" type="line"/>
      <point x="351" y="0" type="line"/>
      <point x="351" y="460" type="line"/>
      <point x="267" y="460" type="line"/>
    </contour>
    <contour>
      <point x="467" y="0" type="line"/>
      <point x="552" y="0" type="line"/>
      <point x="552" y="460" type="line"/>
      <point x="467" y="460" type="line"/>
    </contour>
  </outline>
</glyph>
<glyph name="uni044A" format="2">
  <advance width="419"/>
  <unicode hex="044A"/>
  <outline>
    <contour>
      <point x="22" y="371" type="line"/>
      <point x="166" y="371" type="line"/>
      <point x="166" y="460" type="line"/>
      <point x="22" y="460" type="line"/>
    </contour>
    <contour>
      <point x="89" y="0" type="line"/>
      <point x="175" y="0" type="line"/>
      <point x="175" y="460" type="line"/>
      <point x="89" y="460" type="line"/>
    </contour>
    <contour>
      <point x="130" y="0" type="line"/>
      <point x="241" y="0" type="line" smooth="yes"/>
      <point x="352" y="0"/>
      <point x="379" y="69"/>
      <point x="379" y="144" type="curve" smooth="yes"/>
      <point x="379" y="219"/>
      <point x="352" y="296"/>
      <point x="241" y="296" type="curve" smooth="yes"/>
      <point x="130" y="296" type="line"/>
      <point x="130" y="224" type="line"/>
      <point x="238" y="224" type="line" smooth="yes"/>
      <point x="280" y="224"/>
      <point x="294" y="191"/>
      <point x="294" y="144" type="curve" smooth="yes"/>
      <point x="294" y="101"/>
      <point x="280" y="72"/>
      <point x="238" y="72" type="curve" smooth="yes"/>
      <point x="130" y="72" type="line"/>
    </contour>
  </outline>
</glyph>
<glyph name="uni044E" format="2">
  <advance width="547"/>
  <unicode hex="044E"/>
  <outline>
    <contour>
      <point x="66" y="0" type="line"/>
      <point x="152" y="0" type="line"/>
      <point x="152" y="185" type="line"/>
      <point x="210" y="185" type="line"/>
      <point x="210" y="275" type="line"/>
      <point x="152" y="275" type="line"/>
      <point x="152" y="460" type="line"/>
      <point x="66" y="460" type="line"/>
    </contour>
    <contour>
      <point x="179" y="231" type="curve" smooth="yes"/>
      <point x="179" y="106"/>
      <point x="231" y="-11"/>
      <point x="339" y="-11" type="curve" smooth="yes"/>
      <point x="447" y="-11"/>
      <point x="507" y="112"/>
      <point x="507" y="230" type="curve" smooth="yes"/>
      <point x="507" y="353"/>
      <point x="451" y="471"/>
      <point x="339" y="471" type="curve" smooth="yes"/>
      <point x="233" y="471"/>
      <point x="179" y="355"/>
    </contour>
    <contour>
      <point x="264" y="230" type="curve" smooth="yes"/>
      <point x="264" y="331"/>
      <point x="296" y="394"/>
      <point x="339" y="394" type="curve" smooth="yes"/>
      <point x="389" y="394"/>
      <point x="421" y="331"/>
      <point x="421" y="230" type="curve" smooth="yes"/>
      <point x="421" y="157"/>
      <point x="396" y="66"/>
      <point x="339" y="66" type="curve" smooth="yes"/>
      <point x="286" y="66"/>
      <point x="264" y="152"/>
    </contour>
  </outline>
</glyph>
<glyph name="uni044F" format="2">
  <advance width="393"/>
  <unicode hex="044F"/>
  <outline>
    <contour>
      <point x="42" y="322" type="curve" smooth="yes"/>
      <point x="42" y="219"/>
      <point x="109" y="179"/>
      <point x="175" y="179" type="curve" smooth="yes"/>
      <point x="273" y="179" type="line"/>
      <point x="273" y="253" type="line"/>
      <point x="190" y="253" type="line" smooth="yes"/>
      <point x="157" y="253"/>
      <point x="127" y="262"/>
      <point x="127" y="321" type="curve" smooth="yes"/>
      <point x="127" y="376"/>
      <point x="160" y="386"/>
      <point x="190" y="386" type="curve" smooth="yes"/>
      <point x="322" y="386" type="line"/>
      <point x="322" y="460" type="line"/>
      <point x="175" y="460" type="line" smooth="yes"/>
      <point x="115" y="460"/>
      <point x="42" y="430"/>
    </contour>
    <contour>
      <point x="37" y="0" type="line"/>
      <point x="126" y="0" type="line"/>
      <point x="198" y="192" type="line"/>
      <point x="120" y="209" type="line"/>
    </contour>
    <contour>
      <point x="242" y="0" type="line"/>
      <point x="327" y="0" type="line"/>
      <point x="327" y="460" type="line"/>
      <point x="242" y="460" type="line"/>
    </contour>
  </outline>
</glyph>
<glyph name="m.sc" format="2">
  <advance width="514"/>
  <outline>
    <contour>
      <point x="33" y="0" type="curve"/>
      <point x="113" y="0" type="line"/>
      <point x="113" y="402" type="line"/>
      <point x="211" y="0" type="line"/>
      <point x="303" y="0" type="line"/>
      <point x="402" y="402" type="line"/>
      <point x="402" y="0" type="line"/>
      <point x="482" y="0" type="line"/>
      <point x="482" y="460" type="line"/>
      <point x="349" y="460" type="line"/>
      <point x="264" y="59" type="line"/>
      <point x="251" y="59" type="line"/>
      <point x="165" y="460" type="line"/>
      <point x="33" y="460" type="line"/>
      <point x="33" y="307"/>
      <point x="33" y="153"/>
    </contour>
  </outline>
</glyph>
<glyph name="one.dnom" format="2">
  <advance width="225"/>
  <outline>
    <contour>
      <point x="33" y="139" type="line"/>
      <point x="79" y="139"/>
      <point x="109" y="151"/>
      <point x="124" y="156" type="curve"/>
      <point x="124" y="-230" type="line"/>
      <point x="192" y="-230" type="line"/>
      <point x="192" y="237" type="line"/>
      <point x="170" y="237" type="line"/>
      <point x="144" y="211"/>
      <point x="106" y="191"/>
      <point x="33" y="191" type="curve"/>
    </contour>
  </outline>
</glyph>
<glyph name="uni03080300" format="2">
  <anchor x="-215" y="530" name="_top"/>
  <outline>
    <component base="dieresis" xOffset="-404"/>
    <contour>
      <point x="-343" y="862" type="line"/>
      <point x="-239" y="700" type="line"/>
      <point x="-189" y="700" type="line"/>
      <point x="-254" y="862" type="line"/>
    </contour>
  </outline>
  <guideline angle="90" x="-356" y="0"/>
  <guideline angle="90" x="-255" y="0"/>
  <guideline angle="90" x="-175" y="0"/>
  <guideline angle="90" x="-74" y="0"/>
  <guideline angle="0" x="0" y="641"/>
  <guideline angle="90" x="-215" y="0"/>
</glyph>
<glyph name="uni041B.loclBGR" format="2">
  <advance width="473"/>
  <outline>
    <contour>
      <point x="44" y="0" type="line"/>
      <point x="132" y="0" type="line"/>
      <point x="256" y="555" type="line"/>
      <point x="236" y="555" type="line"/>
      <point x="359" y="0" type="line"/>
      <point x="447" y="0" type="line"/>
      <point x="292" y="700" type="line"/>
      <point x="200" y="700" type="line"/>
    </contour>
  </outline>
</glyph>
<glyph name="uni0432.loclBGR" format="2">
  <advance width="404"/>
  <outline>
    <contour>
      <point x="33" y="180" type="line" smooth="yes"/>
      <point x="33" y="53"/>
      <point x="100" y="-12"/>
      <point x="204" y="-12" type="curve" smooth="yes"/>
      <point x="306" y="-12"/>
      <point x="379" y="53"/>
      <point x="379" y="201" type="curve" smooth="yes"/>
      <point x="379" y="292"/>
      <point x="345" y="399"/>
      <point x="218" y="399" type="curve" smooth="yes"/>
      <point x="187" y="399"/>
      <point x="163" y="388"/>
      <point x="139" y="366" type="curve"/>
      <point x="139" y="289" type="line"/>
      <point x="168" y="313"/>
      <point x="190" y="324"/>
      <point x="207" y="324" type="curve" smooth="yes"/>
      <point x="261" y="324"/>
      <point x="294" y="270"/>
      <point x="294" y="188" type="curve" smooth="yes"/>
      <point x="294" y="108"/>
      <point x="262" y="64"/>
      <point x="207" y="64" type="curve" smooth="yes"/>
      <point x="150" y="64"/>
      <point x="118" y="114"/>
      <point x="118" y="200" type="curve" smooth="yes"/>
      <point x="118" y="489" type="line" smooth="yes"/>
      <point x="118" y="587"/>
      <point x="137" y="626"/>
      <point x="191" y="626" type="curve" smooth="yes"/>
      <point x="239" y="626"/>
      <point x="264" y="579"/>
      <point x="264" y="502" type="curve" smooth="yes"/>
      <point x="264" y="458"/>
      <point x="256" y="409"/>
      <point x="240" y="382" type="curve"/>
      <point x="302" y="352" type="line"/>
      <point x="334" y="395"/>
      <point x="349" y="452"/>
      <point x="349" y="511" type="curve" smooth="yes"/>
      <point x="349" y="620"/>
      <point x="294" y="702"/>
      <point x="193" y="702" type="curve" smooth="yes"/>
      <point x="88" y="702"/>
      <point x="33" y="636"/>
      <point x="33" y="495" type="curve" smooth="yes"/>
    </contour>
  </outline>
</glyph>
<glyph name="uni0439.sc" format="2">
  <advance width="455"/>
  <outline>
    <contour>
      <point x="228" y="530" type="curve" smooth="yes"/>
      <point x="316" y="530"/>
      <point x="383" y="579"/>
      <point x="383" y="670" type="curve"/>
      <point x="308" y="670" type="line"/>
      <point x="308" y="614"/>
      <point x="273" y="594"/>
      <point x="228" y="594" type="curve" smooth="yes"/>
      <point x="194" y="594"/>
      <point x="148" y="613"/>
      <point x="148" y="670" type="curve"/>
      <point x="73" y="670" type="line"/>
      <point x="73" y="581"/>
      <point x="142" y="530"/>
    </contour>
    <contour>
      <point x="33" y="0" type="line"/>
      <point x="133" y="0" type="line"/>
      <point x="347" y="376" type="line"/>
      <point x="342" y="337"/>
      <point x="344" y="334"/>
      <point x="343" y="318" type="curve"/>
      <point x="343" y="0" type="line"/>
      <point x="423" y="0" type="line"/>
      <point x="423" y="460" type="line"/>
      <point x="323" y="460" type="line"/>
      <point x="108" y="84" type="line"/>
      <point x="110" y="88"/>
      <point x="113" y="102"/>
      <point x="113" y="142" type="curve" smooth="yes"/>
      <point x="113" y="460" type="line"/>
      <point x="33" y="460" type="line"/>
    </contour>
  </outline>
</glyph>
<glyph name="uni043B.loclBGR" format="2">
  <advance width="364"/>
  <outline>
    <contour>
      <point x="11" y="0" type="line"/>
      <point x="100" y="0" type="line"/>
      <point x="195" y="394" type="line"/>
      <point x="169" y="394" type="line"/>
      <point x="264" y="0" type="line"/>
      <point x="353" y="0" type="line"/>
      <point x="236" y="460" type="line"/>
      <point x="128" y="460" type="line"/>
    </contour>
  </outline>
  <guideline angle="90" x="182" y="0"/>
</glyph>
<glyph name="uni0446.loclBGR" format="2">
  <advance width="442"/>
  <outline>
    <contour>
      <point x="350" y="-106" type="line"/>
      <point x="427" y="-106" type="line"/>
      <point x="427" y="47" type="line"/>
      <point x="382" y="47"/>
      <point x="376" y="85"/>
      <point x="376" y="132" type="curve" smooth="yes"/>
      <point x="376" y="460" type="line"/>
      <point x="289" y="460" type="line"/>
      <point x="289" y="90" type="line" smooth="yes"/>
      <point x="289" y="31"/>
      <point x="314" y="-11"/>
      <point x="350" y="-11" type="curve"/>
    </contour>
    <contour>
      <point x="66" y="165" type="line" smooth="yes"/>
      <point x="66" y="92"/>
      <point x="76" y="-12"/>
      <point x="190" y="-12" type="curve" smooth="yes"/>
      <point x="267" y="-12"/>
      <point x="300" y="43"/>
      <point x="331" y="109" type="curve"/>
      <point x="294" y="132" type="line"/>
      <point x="294" y="109" type="line"/>
      <point x="343" y="109" type="line"/>
      <point x="343" y="215" type="line"/>
      <point x="296" y="215" type="line"/>
      <point x="296" y="115"/>
      <point x="251" y="64"/>
      <point x="212" y="64" type="curve" smooth="yes"/>
      <point x="157" y="64"/>
      <point x="151" y="132"/>
      <point x="151" y="176" type="curve" smooth="yes"/>
      <point x="151" y="460" type="line"/>
      <point x="66" y="460" type="line"/>
    </contour>
  </outline>
</glyph>
<glyph name="uni044A.loclBGR" format="2">
  <advance width="428"/>
  <outline>
    <contour>
      <point x="-4" y="384" type="line"/>
      <point x="140" y="384" type="line"/>
      <point x="140" y="460" type="line"/>
      <point x="-4" y="460" type="line"/>
    </contour>
    <contour>
      <point x="65" y="190" type="line" smooth="yes"/>
      <point x="65" y="72"/>
      <point x="124" y="-12"/>
      <point x="225" y="-12" type="curve" smooth="yes"/>
      <point x="337" y="-12"/>
      <point x="388" y="96"/>
      <point x="388" y="190" type="curve" smooth="yes"/>
      <point x="388" y="296"/>
      <point x="348" y="390"/>
      <point x="243" y="390" type="curve" smooth="yes"/>
      <point x="188" y="390"/>
      <point x="147" y="340"/>
      <point x="131" y="306" type="curve"/>
      <point x="150" y="267" type="line"/>
      <point x="150" y="460" type="line"/>
      <point x="65" y="460" type="line"/>
    </contour>
    <contour>
      <point x="150" y="177" type="curve" smooth="yes"/>
      <point x="150" y="190" type="line" smooth="yes"/>
      <point x="150" y="278"/>
      <point x="189" y="318"/>
      <point x="225" y="318" type="curve" smooth="yes"/>
      <point x="274" y="318"/>
      <point x="303" y="261"/>
      <point x="303" y="190" type="curve" smooth="yes"/>
      <point x="303" y="119"/>
      <point x="270" y="60"/>
      <point x="225" y="60" type="curve" smooth="yes"/>
      <point x="178" y="60"/>
      <point x="150" y="102"/>
    </contour>
  </outline>
</glyph>
<glyph name="uni044E.loclBGR" format="2">
  <advance width="547"/>
  <outline>
    <contour>
      <point x="66" y="0" type="line"/>
      <point x="152" y="0" type="line"/>
      <point x="152" y="700" type="line"/>
      <point x="66" y="700" type="line"/>
    </contour>
    <contour>
      <point x="120" y="185" type="line"/>
      <point x="210" y="185" type="line"/>
      <point x="210" y="275" type="line"/>
      <point x="120" y="275" type="line"/>
    </contour>
    <contour>
      <point x="180" y="231" type="curve" smooth="yes"/>
      <point x="180" y="106"/>
      <point x="231" y="-11"/>
      <point x="339" y="-11" type="curve" smooth="yes"/>
      <point x="447" y="-11"/>
      <point x="507" y="112"/>
      <point x="507" y="230" type="curve" smooth="yes"/>
      <point x="507" y="353"/>
      <point x="452" y="471"/>
      <point x="339" y="471" type="curve" smooth="yes"/>
      <point x="234" y="471"/>
      <point x="180" y="355"/>
    </contour>
    <contour>
      <point x="265" y="230" type="curve" smooth="yes"/>
      <point x="265" y="331"/>
      <point x="297" y="394"/>
      <point x="340" y="394" type="curve" smooth="yes"/>
      <point x="390" y="394"/>
      <point x="422" y="331"/>
      <point x="422" y="230" type="curve" smooth="yes"/>
      <point x="422" y="157"/>
      <point x="397" y="66"/>
      <point x="340" y="66" type="curve" smooth="yes"/>
      <point x="287" y="66"/>
      <point x="265" y="152"/>
    </contour>
  </outline>
</glyph>
<glyph name="w.sc" format="2">
  <advance width="696"/>
  <outline>
    <contour>
      <point x="169" y="0" type="line"/>
      <point x="246" y="0" type="line"/>
      <point x="348" y="350" type="line"/>
      <point x="449" y="0" type="line"/>
      <point x="527" y="0" type="line"/>
      <point x="664" y="460" type="line"/>
      <point x="584" y="460" type="line"/>
      <point x="489" y="110" type="line"/>
      <point x="393" y="460" type="line"/>
      <point x="303" y="460" type="line"/>
      <point x="208" y="110" type="line"/>
      <point x="113" y="460" type="line"/>
      <point x="33" y="460" type="line"/>
    </contour>
  </outline>
</glyph>
<glyph name="x.sc" format="2">
  <advance width="432"/>
  <outline>
    <contour>
      <point x="20" y="0" type="line"/>
      <point x="113" y="0" type="line"/>
      <point x="217" y="180" type="line"/>
      <point x="321" y="0" type="line"/>
      <point x="413" y="0" type="line"/>
      <point x="263" y="230" type="line"/>
      <point x="413" y="460" type="line"/>
      <point x="322" y="460" type="line"/>
      <point x="217" y="280" type="line"/>
      <point x="110" y="460" type="line"/>
      <point x="20" y="460" type="line"/>
      <point x="171" y="230" type="line"/>
    </contour>
  </outline>
</glyph>
